<svg width="670" height="364" viewBox="0 0 670 364" fill="none" xmlns="http://www.w3.org/2000/svg">
<rect width="670" height="364" rx="12" fill="#EBF8FF"/>
<path d="M132.76 252.863V113.091C132.76 109.45 135.709 106.5 139.35 106.5H378.897C382.538 106.5 385.488 109.45 385.488 113.091V252.863C385.488 256.504 382.538 259.453 378.897 259.453H139.343C135.709 259.453 132.76 256.504 132.76 252.863Z" fill="#69A2D1"/>
<path d="M380.479 117.822V238.283C380.479 241.916 377.529 244.866 373.896 244.866H144.335C140.694 244.866 137.744 241.916 137.744 238.283V117.822C137.744 114.189 140.694 111.239 144.335 111.239H373.896C377.529 111.239 380.479 114.189 380.479 117.822Z" fill="#EBFFFD"/>
<path d="M253.168 111.508V108.904H265.074V112.008C265.074 114.535 263.023 116.586 260.496 116.586H258.245C255.442 116.586 253.168 114.312 253.168 111.508Z" fill="#69A2D1"/>
<path d="M259.121 113.544C259.757 113.544 260.273 113.028 260.273 112.391C260.273 111.755 259.757 111.239 259.121 111.239C258.485 111.239 257.969 111.755 257.969 112.391C257.969 113.028 258.485 113.544 259.121 113.544Z" fill="#3B507A"/>
<path d="M191.016 200.382V133.408C191.016 128.96 194.618 125.357 199.066 125.357H240.576C245.024 125.357 248.627 128.96 248.627 133.408V200.382C248.627 204.83 245.024 208.433 240.576 208.433H199.066C194.618 208.44 191.016 204.83 191.016 200.382Z" fill="#9FD9FB"/>
<path d="M198.676 139.298C198.676 137.685 199.982 136.379 201.595 136.379H238.059C239.672 136.379 240.978 137.685 240.978 139.298C240.978 140.911 239.672 142.217 238.059 142.217H201.595C199.982 142.217 198.676 140.911 198.676 139.298Z" fill="#718EC7"/>
<path d="M198.676 157.195C198.676 155.582 199.982 154.276 201.595 154.276H238.059C239.672 154.276 240.978 155.582 240.978 157.195C240.978 158.808 239.672 160.114 238.059 160.114H201.595C199.982 160.107 198.676 158.801 198.676 157.195Z" fill="#718EC7"/>
<path d="M198.676 175.086C198.676 173.473 199.982 172.167 201.595 172.167H238.059C239.672 172.167 240.978 173.473 240.978 175.086C240.978 176.699 239.672 178.005 238.059 178.005H201.595C199.982 178.005 198.676 176.699 198.676 175.086Z" fill="#718EC7"/>
<path d="M198.676 192.976C198.676 191.363 199.982 190.057 201.595 190.057H238.059C239.672 190.057 240.978 191.363 240.978 192.976C240.978 194.589 239.672 195.895 238.059 195.895H201.595C199.982 195.895 198.676 194.589 198.676 192.976Z" fill="#718EC7"/>
<path d="M269.6 229.687V195.351C269.6 193.377 271.197 191.779 273.171 191.779H342.074C344.048 191.779 345.646 193.377 345.646 195.351V229.687C345.646 231.661 344.048 233.259 342.074 233.259H273.171C271.205 233.259 269.6 231.654 269.6 229.687Z" fill="#7DE3E3"/>
<path d="M275.359 212.52C275.359 204.032 282.242 197.149 290.73 197.149C299.218 197.149 306.101 204.032 306.101 212.52C306.101 221.008 299.218 227.891 290.73 227.891C282.242 227.891 275.359 221.008 275.359 212.52Z" fill="#EBFFFD"/>
<path d="M340.268 199.899H310.311V201.436H340.268V199.899Z" fill="#EBFFFD"/>
<path d="M340.268 205.821H310.311V207.358H340.268V205.821Z" fill="#EBFFFD"/>
<path d="M340.268 211.752H310.311V213.288H340.268V211.752Z" fill="#EBFFFD"/>
<path d="M340.268 217.674H310.311V219.21H340.268V217.674Z" fill="#EBFFFD"/>
<path d="M340.268 223.596H310.311V225.132H340.268V223.596Z" fill="#EBFFFD"/>
<path d="M263.598 178.936V142.234C263.598 139.215 266.04 136.772 269.059 136.772H346.949C349.968 136.772 352.411 139.215 352.411 142.234V178.936C352.411 181.955 349.968 184.398 346.949 184.398H269.059C266.04 184.398 263.598 181.955 263.598 178.936Z" fill="#98DDED"/>
<path d="M273.068 161.17V146.368C273.068 145.415 273.844 144.64 274.797 144.64H304.37C305.323 144.64 306.099 145.415 306.099 146.368V161.17C306.099 162.123 305.323 162.899 304.37 162.899H274.797C273.844 162.899 273.068 162.123 273.068 161.17Z" fill="#65A8CF"/>
<path d="M273.068 170.925V170.541C273.068 169.588 273.844 168.812 274.797 168.812H304.37C305.323 168.812 306.099 169.588 306.099 170.541V170.925C306.099 171.877 305.323 172.653 304.37 172.653H274.797C273.844 172.653 273.068 171.877 273.068 170.925Z" fill="#65A8CF"/>
<path d="M310.309 174.297V159.495C310.309 158.542 311.084 157.767 312.037 157.767H341.611C342.563 157.767 343.339 158.542 343.339 159.495V174.297C343.339 175.25 342.563 176.025 341.611 176.025H312.037C311.084 176.025 310.309 175.257 310.309 174.297Z" fill="#65A8CF"/>
<path d="M310.309 150.593C310.309 149.64 311.084 148.864 312.037 148.864H341.611C342.563 148.864 343.339 149.64 343.339 150.593C343.339 151.545 342.563 152.321 341.611 152.321H312.037C311.084 152.321 310.309 151.545 310.309 150.593Z" fill="#65A8CF"/>
<g opacity="0.5686">
<path d="M380.48 209.577V238.283C380.48 241.916 377.53 244.866 373.897 244.866H352.373L380.48 209.577Z" fill="white"/>
<path d="M380.479 135.644V177.4L326.747 244.866H293.494L380.479 135.644Z" fill="white"/>
<path d="M164.962 111.239L137.746 145.414V117.822C137.746 114.189 140.696 111.239 144.337 111.239H164.962Z" fill="white"/>
<path d="M188.113 111.239L137.746 174.481V163.65L179.487 111.239H188.113Z" fill="white"/>
</g>
<path d="M316.328 249.645H219.541V260.399H316.328V249.645Z" fill="#3B507A"/>
<path d="M338.602 249.645H320.166V260.399H338.602V249.645Z" fill="#3B507A"/>
<path d="M358.852 249.645H340.416V260.399H358.852V249.645Z" fill="#3B507A"/>
<path d="M379.59 249.645H361.154V260.399H379.59V249.645Z" fill="#3B507A"/>
<path d="M216.744 249.645H198.309V260.399H216.744V249.645Z" fill="#3B507A"/>
<path d="M117.883 253.339C117.883 252.341 118.689 251.534 119.688 251.534H398.548C399.547 251.534 400.354 252.341 400.354 253.339C400.354 262.135 393.225 269.263 384.43 269.263H133.806C125.011 269.263 117.883 262.135 117.883 253.339Z" fill="#4474AB"/>
<path d="M109.914 166.181L106.535 166.911L112.859 196.196L116.238 195.466L109.914 166.181Z" fill="#4474AB"/>
<path d="M114.002 210.537L109.516 189.767C109.324 188.868 109.892 187.977 110.791 187.785L114.662 186.947C115.561 186.755 116.452 187.324 116.644 188.223L121.13 208.993C121.322 209.892 120.754 210.783 119.855 210.975L115.984 211.812C115.077 212.012 114.194 211.436 114.002 210.537Z" fill="#3B507A"/>
<path d="M106.451 174.833C115.572 174.833 122.966 167.439 122.966 158.318C122.966 149.197 115.572 141.803 106.451 141.803C97.3296 141.803 89.9355 149.197 89.9355 158.318C89.9355 167.439 97.3296 174.833 106.451 174.833Z" fill="#718EC7"/>
<path d="M119.217 155.56C120.738 162.611 116.259 169.555 109.208 171.084C108.962 171.138 108.708 171.184 108.463 171.222C104.768 171.798 101.165 170.761 98.3998 168.603C96.6408 167.235 95.2351 165.415 94.367 163.264C94.0752 162.573 93.8447 161.835 93.6834 161.075C92.2546 154.453 96.1184 147.932 102.433 145.896C102.84 145.758 103.27 145.643 103.692 145.551C105.536 145.151 107.379 145.159 109.108 145.535C112.618 146.265 115.722 148.431 117.603 151.527C118.349 152.74 118.902 154.1 119.217 155.56Z" fill="#EBFFFD"/>
<path d="M102.434 145.896L94.3757 163.263C94.0838 162.572 93.8534 161.835 93.6921 161.074C92.2556 154.453 96.1194 147.931 102.434 145.896Z" fill="white"/>
<path d="M117.612 151.535L108.463 171.222C104.768 171.798 101.166 170.761 98.4004 168.603L109.116 145.543C112.626 146.265 115.73 148.431 117.612 151.535Z" fill="white"/>
<path d="M570.936 91.8781V147.046C570.936 150.196 568.378 152.761 565.221 152.761H468.342C465.177 152.761 462.619 150.204 462.619 147.046V91.8781C462.619 91.8243 462.619 91.7629 462.627 91.7091C462.704 88.6365 465.231 86.1631 468.342 86.1631H565.221C568.316 86.1631 570.843 88.6365 570.928 91.7091C570.936 91.7629 570.936 91.8243 570.936 91.8781Z" fill="#9FD9FB"/>
<path d="M507.877 107.494L492.76 121.651L512.609 127.366C513.154 125.538 513.438 123.587 513.438 121.59C513.438 116.143 511.334 111.181 507.877 107.494Z" fill="#718EC7"/>
<path d="M470.943 116.527C470.49 118.233 470.244 120.015 470.244 121.858C470.244 133.265 479.493 142.521 490.907 142.521C494.118 142.521 497.145 141.792 499.864 140.486L490.9 121.92L470.943 116.527Z" fill="#668AD1"/>
<path d="M499.865 140.494H499.872C505.096 137.967 509.113 133.304 510.749 127.643L490.9 121.928L499.865 140.494Z" fill="#5767B5"/>
<path d="M506.017 107.771C502.245 103.73 496.876 101.195 490.915 101.195C481.344 101.195 473.302 107.694 470.951 116.528L490.908 121.928L506.017 107.771Z" fill="#8CAEDE"/>
<path d="M520.897 104.521C521.568 104.521 522.111 103.978 522.111 103.307C522.111 102.637 521.568 102.094 520.897 102.094C520.227 102.094 519.684 102.637 519.684 103.307C519.684 103.978 520.227 104.521 520.897 104.521Z" fill="#718EC7"/>
<path d="M526.836 103.308H560.911" stroke="#718EC7" stroke-miterlimit="10" stroke-linecap="round" stroke-linejoin="round"/>
<path d="M526.836 107.54H560.911" stroke="#718EC7" stroke-miterlimit="10" stroke-linecap="round" stroke-linejoin="round"/>
<path d="M520.897 113.04C521.568 113.04 522.111 112.496 522.111 111.826C522.111 111.156 521.568 110.612 520.897 110.612C520.227 110.612 519.684 111.156 519.684 111.826C519.684 112.496 520.227 113.04 520.897 113.04Z" fill="#718EC7"/>
<path d="M526.836 111.826H560.911" stroke="#718EC7" stroke-miterlimit="10" stroke-linecap="round" stroke-linejoin="round"/>
<path d="M526.836 116.066H560.911" stroke="#718EC7" stroke-miterlimit="10" stroke-linecap="round" stroke-linejoin="round"/>
<path d="M520.897 121.567C521.568 121.567 522.111 121.024 522.111 120.353C522.111 119.683 521.568 119.14 520.897 119.14C520.227 119.14 519.684 119.683 519.684 120.353C519.684 121.024 520.227 121.567 520.897 121.567Z" fill="#718EC7"/>
<path d="M526.836 120.354H560.911" stroke="#718EC7" stroke-miterlimit="10" stroke-linecap="round" stroke-linejoin="round"/>
<path d="M526.836 124.586H560.911" stroke="#718EC7" stroke-miterlimit="10" stroke-linecap="round" stroke-linejoin="round"/>
<path d="M520.897 130.092C521.568 130.092 522.111 129.549 522.111 128.879C522.111 128.208 521.568 127.665 520.897 127.665C520.227 127.665 519.684 128.208 519.684 128.879C519.684 129.549 520.227 130.092 520.897 130.092Z" fill="#718EC7"/>
<path d="M526.836 128.879H560.911" stroke="#718EC7" stroke-miterlimit="10" stroke-linecap="round" stroke-linejoin="round"/>
<path d="M526.836 133.111H560.911" stroke="#718EC7" stroke-miterlimit="10" stroke-linecap="round" stroke-linejoin="round"/>
<path d="M520.897 138.62C521.568 138.62 522.111 138.076 522.111 137.406C522.111 136.736 521.568 136.192 520.897 136.192C520.227 136.192 519.684 136.736 519.684 137.406C519.684 138.076 520.227 138.62 520.897 138.62Z" fill="#718EC7"/>
<path d="M526.836 137.406H560.911" stroke="#718EC7" stroke-miterlimit="10" stroke-linecap="round" stroke-linejoin="round"/>
<path d="M526.836 141.639H560.911" stroke="#718EC7" stroke-miterlimit="10" stroke-linecap="round" stroke-linejoin="round"/>
<path d="M570.928 91.7091H462.635C462.712 88.6365 465.239 86.1631 468.35 86.1631H565.228C568.316 86.1631 570.844 88.6365 570.928 91.7091Z" fill="#3B507A"/>
<path d="M549.051 90.5419C549.937 90.5419 550.656 89.8231 550.656 88.9365C550.656 88.0498 549.937 87.3311 549.051 87.3311C548.164 87.3311 547.445 88.0498 547.445 88.9365C547.445 89.8231 548.164 90.5419 549.051 90.5419Z" fill="white"/>
<path d="M555.348 90.5419C556.234 90.5419 556.953 89.8231 556.953 88.9365C556.953 88.0498 556.234 87.3311 555.348 87.3311C554.461 87.3311 553.742 88.0498 553.742 88.9365C553.742 89.8231 554.461 90.5419 555.348 90.5419Z" fill="white"/>
<path d="M561.648 90.5419C562.535 90.5419 563.254 89.8231 563.254 88.9365C563.254 88.0498 562.535 87.3311 561.648 87.3311C560.762 87.3311 560.043 88.0498 560.043 88.9365C560.043 89.8231 560.762 90.5419 561.648 90.5419Z" fill="white"/>
<path d="M574 180.642V237.37C574 240.611 571.366 243.246 568.124 243.246H468.503C465.254 243.246 462.619 240.611 462.619 237.37V180.642C462.619 180.58 462.619 180.527 462.627 180.465C462.711 177.308 465.308 174.766 468.503 174.766H568.124C571.312 174.766 573.908 177.308 573.993 180.465C574 180.527 574 180.58 574 180.642Z" fill="#9FD9FB"/>
<path d="M573.993 180.465H462.627C462.711 177.308 465.308 174.766 468.503 174.766H568.124C571.312 174.766 573.908 177.308 573.993 180.465Z" fill="#3B507A"/>
<path d="M551.501 179.266C552.413 179.266 553.153 178.527 553.153 177.614C553.153 176.702 552.413 175.963 551.501 175.963C550.589 175.963 549.85 176.702 549.85 177.614C549.85 178.527 550.589 179.266 551.501 179.266Z" fill="white"/>
<path d="M557.978 179.266C558.89 179.266 559.629 178.527 559.629 177.614C559.629 176.702 558.89 175.963 557.978 175.963C557.066 175.963 556.326 176.702 556.326 177.614C556.326 178.527 557.066 179.266 557.978 179.266Z" fill="white"/>
<path d="M564.458 179.266C565.37 179.266 566.11 178.527 566.11 177.614C566.11 176.702 565.37 175.963 564.458 175.963C563.546 175.963 562.807 176.702 562.807 177.614C562.807 178.527 563.546 179.266 564.458 179.266Z" fill="white"/>
<path d="M483.367 189.267H480.479V231.899H483.367V189.267Z" fill="#668AD1"/>
<path d="M491.31 196.388H488.422V231.899H491.31V196.388Z" fill="#8CAEDE"/>
<path d="M499.246 204.667H496.357V231.89H499.246V204.667Z" fill="#668AD1"/>
<path d="M507.187 210.582H504.299V231.898H507.187V210.582Z" fill="#8CAEDE"/>
<path d="M515.13 200.543H512.242V231.899H515.13V200.543Z" fill="#668AD1"/>
<path d="M523.064 204.667H520.176V231.89H523.064V204.667Z" fill="#8CAEDE"/>
<path d="M531.005 209H528.117V231.898H531.005V209Z" fill="#668AD1"/>
<path d="M538.949 216.236H536.061V231.891H538.949V216.236Z" fill="#8CAEDE"/>
<path d="M546.884 209H543.996V231.898H546.884V209Z" fill="#668AD1"/>
<path d="M554.828 221.997H551.939V231.898H554.828V221.997Z" fill="#8CAEDE"/>
<path d="M477.259 186.11H476.438V231.078H477.259V186.11Z" fill="#5767B5"/>
<path d="M560.183 231.069H476.439V231.891H560.183V231.069Z" fill="#5767B5"/>
<path d="M106.453 91.8907V59.9665C106.453 55.6572 109.948 52.1621 114.258 52.1621H162.405C166.714 52.1621 170.209 55.6572 170.209 59.9665V91.8907C170.209 96.2 166.714 99.695 162.405 99.695H114.258C109.948 99.6874 106.453 96.2 106.453 91.8907Z" fill="#7DE3E3"/>
<path d="M155.837 78.8861C156.844 72.956 153.84 66.4114 149.147 64.3297C144.461 62.2481 138.677 64.8982 136.288 70.2137C133.553 65.9889 128.399 64.3835 124.551 66.7033C120.702 69.0231 118.651 74.9839 119.996 79.9231C115.271 76.5433 112.775 82.4734 112.859 84.0481C112.99 86.3756 114.603 88.1577 116.524 88.1653C125.104 88.1807 150.222 88.2191 160.27 88.2268C163.235 88.2268 164.863 84.0174 162.95 81.2751C162.774 81.0139 162.574 80.7758 162.367 80.553C160.646 78.6864 158.027 78.1333 155.837 78.8861Z" fill="#EBFFFD"/>
<path d="M405.983 140.967C405.921 139.553 405.66 138.171 405.23 136.857C404.354 134.153 402.787 131.726 400.683 129.836C399.661 128.899 398.509 128.1 397.249 127.455C396.02 126.825 394.691 126.341 393.278 126.042C391.864 125.742 390.451 125.627 389.076 125.704C387.663 125.773 386.28 126.034 384.966 126.464C382.27 127.332 379.843 128.899 377.946 130.996C377.016 132.018 376.21 133.17 375.572 134.438C374.934 135.667 374.45 136.996 374.151 138.417C373.844 139.838 373.736 141.243 373.813 142.618C373.882 144.032 374.136 145.414 374.573 146.728C375.434 149.424 377.001 151.844 379.105 153.749C380.135 154.678 381.287 155.485 382.547 156.13C383.776 156.76 385.112 157.244 386.518 157.543C387.939 157.851 389.345 157.958 390.72 157.881C392.133 157.812 393.516 157.551 394.837 157.129C397.533 156.261 399.968 154.686 401.858 152.581C402.795 151.56 403.594 150.407 404.239 149.148C404.869 147.919 405.353 146.59 405.653 145.176C405.96 143.763 406.067 142.35 405.983 140.967ZM388.523 148.241C388.308 148.195 388.1 148.141 387.901 148.072C386.626 147.673 385.543 146.889 384.751 145.898C384.482 145.56 384.252 145.207 384.052 144.823C383.461 143.701 383.2 142.396 383.361 141.051C383.376 140.844 383.415 140.629 383.461 140.421C383.507 140.206 383.561 139.999 383.63 139.799C384.029 138.516 384.813 137.433 385.811 136.642C386.142 136.373 386.503 136.143 386.879 135.951C388.008 135.359 389.314 135.106 390.651 135.26C390.866 135.275 391.073 135.313 391.281 135.359C391.488 135.405 391.703 135.459 391.895 135.528C393.186 135.935 394.269 136.704 395.052 137.702C395.321 138.033 395.551 138.394 395.744 138.77C396.335 139.899 396.596 141.205 396.443 142.542C396.427 142.757 396.389 142.964 396.343 143.179C396.297 143.387 396.243 143.602 396.174 143.794C395.767 145.084 394.998 146.167 394 146.951C393.662 147.22 393.308 147.45 392.924 147.65C391.803 148.234 390.497 148.502 389.16 148.341C388.945 148.326 388.738 148.287 388.523 148.241Z" fill="#5767B5"/>
<path d="M398.831 120.127L395.06 137.703C394.276 136.704 393.193 135.928 391.903 135.529C391.711 135.46 391.496 135.406 391.288 135.36C391.081 135.314 390.873 135.275 390.658 135.26C389.322 135.099 388.016 135.36 386.887 135.951L390.658 118.376L398.831 120.127Z" fill="#5767B5"/>
<path d="M392.923 147.65L389.152 165.225L380.979 163.474L384.75 145.898C385.541 146.889 386.624 147.673 387.9 148.072C388.099 148.149 388.307 148.195 388.522 148.241C388.737 148.287 388.944 148.326 389.159 148.341C390.496 148.502 391.802 148.234 392.923 147.65Z" fill="#5767B5"/>
<path d="M383.36 141.044C383.199 142.388 383.46 143.694 384.052 144.816L366.477 141.044L368.236 132.863L385.818 136.635C384.82 137.426 384.036 138.509 383.637 139.792C383.56 139.992 383.514 140.199 383.468 140.414C383.414 140.622 383.376 140.837 383.36 141.044Z" fill="#5767B5"/>
<path d="M413.334 142.542L411.575 150.723L394 146.951C394.999 146.168 395.774 145.085 396.174 143.794C396.243 143.602 396.297 143.387 396.343 143.18C396.389 142.965 396.427 142.757 396.443 142.542C396.604 141.206 396.335 139.9 395.744 138.771L413.334 142.542Z" fill="#5767B5"/>
<path d="M390.659 135.26C389.322 135.099 388.017 135.36 386.887 135.951C386.511 136.143 386.142 136.374 385.82 136.643C384.821 137.434 384.038 138.517 383.638 139.8L380.919 135.59L377.954 131.004L373.875 124.698L380.896 120.15L384.975 126.465L387.94 131.05L390.659 135.26Z" fill="#5767B5"/>
<path d="M405.936 158.896L398.915 163.443L391.872 152.551L389.152 148.349C390.489 148.51 391.795 148.242 392.916 147.658C393.3 147.466 393.661 147.235 393.992 146.959C394.99 146.175 395.766 145.092 396.166 143.802L398.885 148.011L405.936 158.896Z" fill="#5767B5"/>
<path d="M387.899 148.073L383.698 150.792L379.104 153.757L372.798 157.836L368.266 150.815L374.572 146.736L379.158 143.771L383.367 141.052C383.206 142.396 383.467 143.702 384.059 144.823C384.251 145.207 384.481 145.568 384.758 145.899C385.534 146.89 386.617 147.673 387.899 148.073Z" fill="#5767B5"/>
<path d="M411.536 132.786L396.442 142.542C396.603 141.205 396.334 139.9 395.743 138.77C395.551 138.394 395.32 138.033 395.052 137.703C394.268 136.704 393.185 135.928 391.895 135.529L396.104 132.81L400.69 129.844L407.004 125.766L411.536 132.786Z" fill="#5767B5"/>
<path d="M400.76 249.215C412.48 246.478 419.101 231.925 415.548 216.71C411.995 201.495 399.613 191.379 387.893 194.116C376.173 196.853 369.552 211.406 373.105 226.621C376.658 241.836 389.04 251.952 400.76 249.215Z" fill="#7DB0D1"/>
<path d="M404.024 248.453C415.744 245.716 422.365 231.163 418.812 215.948C415.259 200.733 402.877 190.617 391.157 193.354C379.437 196.091 372.816 210.644 376.369 225.859C379.922 241.074 392.303 251.19 404.024 248.453Z" fill="#9FD9FB"/>
<path d="M402.995 244.049C412.844 241.749 418.408 229.523 415.424 216.741C412.439 203.959 402.035 195.462 392.186 197.761C382.338 200.061 376.773 212.288 379.758 225.07C382.743 237.852 393.147 246.349 402.995 244.049Z" fill="#668AD1"/>
<path d="M401.625 238.185C408.975 236.468 413.126 227.341 410.898 217.798C408.669 208.255 400.905 201.91 393.555 203.626C386.206 205.342 382.055 214.47 384.283 224.013C386.512 233.556 394.276 239.901 401.625 238.185Z" fill="#9FD9FB"/>
<path d="M400.482 233.293C405.754 232.062 408.732 225.518 407.135 218.677C405.537 211.835 399.969 207.287 394.697 208.518C389.426 209.749 386.447 216.293 388.045 223.134C389.643 229.976 395.211 234.524 400.482 233.293Z" fill="#668AD1"/>
<path d="M396.22 215.042C398.715 214.459 401.351 216.612 402.108 219.851C402.864 223.089 401.454 226.187 398.959 226.77C396.464 227.353 393.828 225.2 393.071 221.961C392.315 218.722 393.725 215.625 396.22 215.042Z" fill="#9FD9FB"/>
<path d="M441.611 202.64L435.305 207.08C432.801 208.847 429.321 209.023 425.595 207.571L421.908 206.135L432.125 198.938L441.611 202.64Z" fill="#9FD9FB"/>
<path d="M431.22 187.885L424.913 192.325C422.409 194.091 421.072 197.31 421.18 201.304L421.295 205.26L431.511 198.063L431.22 187.885Z" fill="#9FD9FB"/>
<path d="M431.596 197.714L397.9 221.451L398.652 222.519L432.348 198.781L431.596 197.714Z" fill="#5767B5"/>
<path d="M237.359 264.071C246.905 264.071 254.643 256.333 254.643 246.787C254.643 237.242 246.905 229.504 237.359 229.504C227.814 229.504 220.076 237.242 220.076 246.787C220.076 256.333 227.814 264.071 237.359 264.071Z" fill="#FFB84D"/>
<path d="M237.36 260.852C245.127 260.852 251.424 254.555 251.424 246.787C251.424 239.02 245.127 232.723 237.36 232.723C229.592 232.723 223.295 239.02 223.295 246.787C223.295 254.555 229.592 260.852 237.36 260.852Z" stroke="#E38424" stroke-width="2" stroke-miterlimit="10"/>
<path d="M243.79 249.99C243.79 247.11 241.478 246.196 239.205 245.627V241.81C240.134 241.994 241.087 242.34 242.024 242.877L243.13 240.158C242.047 239.474 240.656 239.044 239.205 238.875V236.433H238.052V238.798C237.953 238.798 237.86 238.791 237.76 238.791C237.376 238.791 237.023 238.814 236.67 238.845V236.433H235.517V239.014C232.637 239.628 231.239 241.472 231.239 243.615C231.239 246.395 233.344 247.363 235.517 247.955V251.742C234.25 251.481 233.044 250.974 232.145 250.313L230.932 253.009C231.984 253.823 233.682 254.438 235.517 254.684V257.157H236.67V254.776C236.854 254.784 237.038 254.799 237.23 254.799C237.515 254.799 237.791 254.791 238.052 254.768V257.157H239.205V254.622C242.285 254.054 243.79 252.157 243.79 249.99ZM237.737 241.664C237.845 241.664 237.945 241.671 238.052 241.671V245.351C237.561 245.236 237.092 245.128 236.67 245.005V241.741C236.985 241.687 237.338 241.664 237.737 241.664ZM234.795 243.43C234.795 242.931 235.018 242.478 235.517 242.155V244.544C235.072 244.275 234.795 243.922 234.795 243.43ZM237.253 251.918C237.061 251.918 236.869 251.911 236.67 251.895V248.231C237.154 248.347 237.622 248.454 238.052 248.569V251.88C237.807 251.903 237.545 251.918 237.253 251.918ZM239.205 251.611V248.961C239.834 249.253 240.234 249.645 240.234 250.259C240.234 250.835 239.919 251.312 239.205 251.611Z" fill="#FFD787"/>
<path d="M332.071 282.736C332.025 281.669 331.825 280.632 331.503 279.641C330.842 277.605 329.659 275.769 328.077 274.348C327.309 273.641 326.441 273.042 325.488 272.558C324.559 272.082 323.56 271.721 322.492 271.491C321.432 271.26 320.365 271.183 319.32 271.237C318.252 271.291 317.208 271.483 316.224 271.806C314.189 272.458 312.361 273.641 310.924 275.224C310.225 275.992 309.618 276.86 309.134 277.812C308.65 278.734 308.289 279.741 308.059 280.816C307.829 281.884 307.752 282.944 307.805 283.988C307.859 285.056 308.051 286.093 308.374 287.084C309.019 289.112 310.202 290.948 311.792 292.384C312.568 293.091 313.436 293.69 314.388 294.182C315.318 294.658 316.324 295.019 317.384 295.249C318.452 295.48 319.512 295.557 320.557 295.503C321.624 295.449 322.669 295.257 323.66 294.934C325.696 294.282 327.531 293.091 328.953 291.509C329.659 290.74 330.258 289.872 330.742 288.92C331.219 287.99 331.58 286.992 331.81 285.924C332.048 284.849 332.133 283.781 332.071 282.736ZM318.898 288.221C318.736 288.182 318.583 288.144 318.429 288.09C317.469 287.791 316.647 287.199 316.055 286.454C315.848 286.201 315.679 285.932 315.533 285.64C315.088 284.795 314.895 283.812 315.011 282.798C315.018 282.644 315.049 282.475 315.088 282.321C315.126 282.16 315.164 282.007 315.218 281.853C315.525 280.885 316.109 280.071 316.862 279.472C317.108 279.272 317.384 279.095 317.668 278.949C318.521 278.504 319.504 278.312 320.511 278.427C320.672 278.442 320.833 278.465 320.987 278.504C321.141 278.535 321.302 278.581 321.448 278.634C322.423 278.942 323.238 279.518 323.829 280.278C324.029 280.532 324.205 280.801 324.351 281.085C324.797 281.937 324.997 282.921 324.874 283.927C324.858 284.088 324.835 284.25 324.797 284.411C324.766 284.564 324.72 284.726 324.666 284.872C324.359 285.847 323.783 286.662 323.022 287.253C322.769 287.46 322.5 287.629 322.208 287.775C321.363 288.213 320.38 288.413 319.366 288.298C319.22 288.29 319.059 288.259 318.898 288.221Z" fill="#5767B5"/>
<path d="M326.671 267.02L323.828 280.271C323.237 279.518 322.423 278.934 321.447 278.627C321.301 278.573 321.14 278.535 320.986 278.496C320.833 278.466 320.671 278.435 320.51 278.42C319.504 278.297 318.521 278.496 317.668 278.942L320.51 265.691L326.671 267.02Z" fill="#5767B5"/>
<path d="M322.217 287.775L319.375 301.026L313.207 299.705L316.049 286.454C316.648 287.207 317.463 287.791 318.423 288.09C318.576 288.144 318.73 288.182 318.891 288.221C319.053 288.259 319.214 288.282 319.375 288.298C320.389 288.421 321.372 288.221 322.217 287.775Z" fill="#5767B5"/>
<path d="M315.011 282.798C314.888 283.812 315.088 284.795 315.534 285.64L302.275 282.798L303.597 276.63L316.855 279.472C316.102 280.064 315.511 280.885 315.211 281.853C315.157 282.007 315.119 282.161 315.08 282.322C315.05 282.475 315.019 282.644 315.011 282.798Z" fill="#5767B5"/>
<path d="M337.611 283.927L336.29 290.095L323.039 287.253C323.792 286.662 324.376 285.847 324.683 284.872C324.737 284.726 324.775 284.565 324.813 284.411C324.852 284.25 324.875 284.088 324.89 283.927C325.013 282.921 324.813 281.93 324.368 281.085L337.611 283.927Z" fill="#5767B5"/>
<path d="M320.511 278.435C319.504 278.312 318.521 278.512 317.669 278.957C317.384 279.103 317.108 279.28 316.862 279.479C316.109 280.071 315.518 280.893 315.218 281.861L313.167 278.688L310.932 275.232L307.859 270.477L313.152 267.051L316.232 271.813L318.467 275.27L320.511 278.435Z" fill="#5767B5"/>
<path d="M332.032 296.256L326.74 299.682L321.424 291.463L319.373 288.298C320.379 288.421 321.37 288.221 322.215 287.776C322.507 287.63 322.776 287.453 323.029 287.253C323.782 286.662 324.366 285.848 324.673 284.872L326.724 288.045L332.032 296.256Z" fill="#5767B5"/>
<path d="M318.429 288.098L315.264 290.149L311.8 292.384L307.045 295.457L303.627 290.157L308.382 287.084L311.838 284.849L315.011 282.798C314.888 283.812 315.088 284.795 315.533 285.64C315.679 285.932 315.856 286.201 316.056 286.454C316.647 287.207 317.469 287.791 318.429 288.098Z" fill="#5767B5"/>
<path d="M336.259 276.569L324.875 283.928C324.998 282.921 324.798 281.93 324.353 281.085C324.207 280.801 324.03 280.532 323.83 280.279C323.239 279.526 322.425 278.942 321.449 278.635L324.622 276.584L328.078 274.349L332.841 271.269L336.259 276.569Z" fill="#5767B5"/>
<path d="M229.017 187.403C229.002 186.488 228.91 185.544 228.441 184.76C227.973 183.977 227.028 183.408 226.144 183.646C225.914 182.694 225.837 181.926 225.445 181.303C225.054 180.674 224.239 180.243 223.556 180.535C223.51 179.721 222.918 178.945 222.158 178.577C221.735 178.377 221.274 178.292 220.806 178.292C222.043 175.827 223.095 173.261 223.94 170.634C224.086 170.188 224.224 169.72 224.147 169.259C224.07 168.798 223.694 168.353 223.233 168.353C222.742 168.353 222.388 168.813 222.119 169.228C217.971 175.55 208.992 188.808 208.277 189.745C210.782 191.72 211.934 193.671 214.476 195.338C218.571 194.946 223.671 191.028 225.415 187.164C226.375 187.072 226.206 189.576 226.106 190.375C226.068 190.713 225.983 191.059 225.999 191.397C226.014 191.743 226.152 192.104 226.444 192.28C226.982 192.603 227.658 192.15 228.019 191.635C228.887 190.437 229.048 188.877 229.017 187.403Z" fill="#FDA492"/>
<path d="M213.219 184.476C215.377 183.301 217.543 182.134 219.702 180.958C220.109 180.736 220.593 180.513 221.015 180.705C221.338 180.851 221.515 181.22 221.53 181.573C221.545 181.926 221.423 182.272 221.277 182.594C220.716 183.824 219.794 184.891 218.734 185.805C219.256 187.872 218.388 190.214 216.652 191.436" stroke="#CC565E" stroke-miterlimit="10" stroke-linecap="round"/>
<path d="M223.581 181.195C223.474 182.094 223.366 182.993 223.09 183.853C222.805 184.713 222.337 185.528 221.623 186.081C220.908 186.634 219.925 186.872 219.072 186.572" stroke="#CC565E" stroke-miterlimit="10" stroke-linecap="round"/>
<path d="M226.105 184.269C226.013 185.336 225.806 186.404 225.322 187.364C224.846 188.324 224.07 189.162 223.079 189.569C222.626 189.753 221.996 189.792 221.742 189.377C221.604 189.154 221.627 188.877 221.65 188.616C221.719 187.856 221.788 187.103 221.85 186.343" stroke="#CC565E" stroke-miterlimit="10" stroke-linecap="round"/>
<path d="M213.558 188.301L208.396 189.607L188.632 202.688L182.525 203.418L179.768 215.048C179.768 215.048 186.205 219.173 189.523 218.558C193.241 217.874 215.026 194.784 215.026 194.784L213.558 188.301Z" fill="#FDA492"/>
<path d="M171.064 185.175C172.124 185.905 173.207 186.588 174.397 187.318C177.232 189.062 179.805 191.197 182.048 193.655C184.498 196.344 187.003 199.055 189.676 201.851C188.155 208.043 184.836 213.773 180.105 218.013C178.307 217.368 170.441 213.228 170.441 213.228C170.441 213.228 170.864 209.179 170.81 208.05C170.434 200.73 170.372 193.394 171.064 185.175Z" fill="#FFE9A6"/>
<path d="M156.451 310.301C154.4 305.17 152.826 297.496 152.303 292.065C152.995 290.713 153.425 290.56 154.255 289.753C153.233 289.715 152.38 289.63 151.359 289.592C150.191 286.873 149.776 283.109 150.491 280.689C156.213 279.314 161.168 278.892 166.391 279.076C167.044 282.571 167.697 286.074 168.027 291.059C166.299 293.125 164.778 295.107 163.48 298.072C163.603 300.108 163.541 301.852 163.618 303.68C163.695 305.608 162.965 307.482 161.575 308.75C160.146 310.071 158.587 310.916 156.451 310.301Z" fill="#3D2A2B"/>
<path d="M167.006 233.401C167.006 233.401 207.487 239.17 208.132 247.873C209.261 263.036 167.505 292.94 167.505 292.94L159.086 278.376L182.015 254.318L160.791 242.711L167.006 233.401Z" fill="#6B4F4B"/>
<path d="M193.507 329.933C188.729 327.152 182.761 322.083 178.997 318.134C178.713 316.644 178.951 316.26 179.112 315.108C178.282 315.707 177.56 316.168 176.731 316.767C174.134 315.346 171.492 312.642 170.562 310.292C174.227 305.683 177.868 302.295 182.092 299.223C184.766 301.573 187.431 303.931 190.765 307.649C190.68 310.345 190.703 312.834 191.51 315.968C192.854 317.497 193.891 318.903 195.074 320.301C196.318 321.768 196.902 323.696 196.595 325.555C196.28 327.475 195.566 329.104 193.507 329.933Z" fill="#3D2A2B"/>
<path d="M138.069 224.959L130.664 234.338C130.664 234.338 128.437 245.668 135.796 249.34C143.155 253.019 181.623 258.588 181.623 258.588L176.139 303.11L192.032 309.033C192.032 309.033 203.976 250.838 201.872 246.121C199.775 241.405 159.892 233.977 159.892 233.977L138.069 224.959Z" fill="#6B4F4B"/>
<path d="M167.881 235.744C178.597 237.549 189.128 240.407 199.275 244.301C201.026 244.97 202.171 246.667 202.094 248.541C201.971 251.537 200.942 260.21 200.466 263.175" stroke="#472E2D" stroke-miterlimit="10" stroke-linecap="round"/>
<path d="M178.498 283.999C179.52 276.241 180.826 266.378 181.67 258.681C180.756 258.52 179.835 258.359 178.921 258.197" stroke="#472E2D" stroke-miterlimit="10" stroke-linecap="round"/>
<path d="M157.536 177.494C157.536 177.494 145.768 180.206 141.443 186.151C137.119 192.097 129.184 239.791 129.184 239.791C135.79 244.323 157.044 243.716 166.37 237.225L168.613 234.122L173.552 234.859C173.552 234.859 171.708 228.292 171.877 226.302C172.4 220.349 176.793 195.661 175.357 189.731C174.059 184.369 157.536 177.494 157.536 177.494Z" fill="#FFE9A6"/>
<path d="M167.508 191.498C168.276 201.507 167.984 211.593 166.64 221.54C166.017 226.126 165.311 231.288 168.145 234.96" stroke="#DBAA69" stroke-miterlimit="10" stroke-linecap="round"/>
<path d="M175.426 193.011C175.234 200.247 175.134 206.154 173.467 214.534" stroke="#DBAA69" stroke-miterlimit="10" stroke-linecap="round"/>
<path d="M173.142 237.878C173.142 237.878 137.723 238.523 135.273 233.622C132.822 228.721 136.187 206.491 136.187 206.491L150.259 208.212L148.254 223.721L173.542 229.674L173.142 237.878Z" fill="#FDA492"/>
<path d="M172.321 229.767C176.707 229.221 181.346 228.092 186.455 228.307C186.985 228.33 187.515 228.468 187.983 228.753C190.787 230.42 193.222 232.878 195.012 235.85C195.357 236.426 195.695 237.064 195.688 237.763C195.688 238.462 195.204 239.199 194.589 239.153C194.044 239.115 193.675 238.524 193.353 238.024C192.147 236.15 190.426 234.706 188.498 233.953C189.819 235.551 190.864 237.425 191.57 239.468C191.816 240.175 192.016 240.966 191.77 241.665C191.524 242.364 190.633 242.787 190.172 242.241C190.242 242.887 189.919 243.563 189.404 243.854C188.89 244.139 188.221 244.016 187.814 243.563C187.76 244.607 186.985 245.091 186.155 244.638C184.35 243.647 184.173 240.659 181.907 239.868C178.512 240.598 174.894 239.929 171.883 238.001C172.382 235.075 172.282 232.893 172.321 229.767Z" fill="#FDA492"/>
<path d="M190.102 241.742C189.449 239.507 188.45 237.379 187.145 235.451" stroke="#CC565E" stroke-miterlimit="10" stroke-linecap="round"/>
<path d="M187.584 243.11C187.015 240.736 185.909 238.493 184.365 236.604" stroke="#CC565E" stroke-miterlimit="10" stroke-linecap="round"/>
<path d="M148.553 181.02C147.669 181.404 146.809 181.818 145.964 182.279C141.394 184.76 137.323 189.093 136.14 194.155C134.795 199.908 134.081 205.201 133.789 211.008C139.781 212.529 146.517 213.858 152.839 213.919C153.653 209.141 154.114 204.302 154.214 199.455" fill="#FFE9A6"/>
<path d="M152.532 191.789C153.869 199.094 154.107 206.591 153.308 213.858C152.263 213.85 151.219 213.843 150.174 213.835" stroke="#DBAA69" stroke-miterlimit="10" stroke-linecap="round"/>
<path d="M172.377 187.194C172.876 188.43 173.145 189.767 173.161 191.103C171.501 189.775 169.658 188.684 167.691 187.862C168.79 186.479 169.765 184.989 170.595 183.43C171.279 184.152 171.839 184.981 172.262 185.872" fill="#D4C8A5"/>
<path d="M166.8 190.459C168.067 189.284 169.949 186.357 171.178 185.136C172.131 186.511 172.415 188.462 173.183 190.981C173.191 188.339 172.561 185.696 171.447 183.407C169.588 181.472 167.33 179.92 164.857 178.891C164.695 182.754 165.264 186.772 166.8 190.459Z" fill="#FFFAE0"/>
<path d="M165.931 182.026C166.238 185.045 166.169 185.782 166.814 190.376C161 187.58 155.692 184.246 150.898 180.29C152.074 177.947 153.034 175.435 153.664 172.847C153.933 171.718 154.14 170.573 154.271 169.413C159.056 170.75 163.45 172.117 167.851 173.477C167.414 175.65 166.692 178.539 166.177 180.912C166.085 181.296 166.008 181.673 165.931 182.026Z" fill="#FDA492"/>
<path d="M167.852 173.477C167.414 175.65 166.692 178.539 166.177 180.912C163.719 180.436 161.353 179.507 159.241 178.162C157.059 176.772 155.154 174.951 153.664 172.847C153.933 171.718 154.14 170.573 154.271 169.413C159.056 170.75 163.45 172.117 167.852 173.477Z" fill="#F07A75"/>
<path d="M165.143 188.863C165.711 189.408 166.287 189.946 166.925 190.545C164.951 190.054 162.938 189.708 160.91 189.5C162.009 188.993 163.038 188.341 163.975 187.58C164.136 187.88 164.382 188.141 165.143 188.863Z" fill="#D4C8A5"/>
<path d="M144.992 181.403C146.575 179.199 148.948 177.586 151.429 176.487C154.978 180.535 159.518 184.13 164.411 186.442C164.995 187.917 165.786 189.231 166.831 190.437C165.763 189.938 164.849 189.377 163.942 188.709C162.391 189.63 160.217 191.259 158.688 193.394C153.288 190.775 148.556 186.204 144.992 181.403Z" fill="#FFFAE0"/>
<path d="M173.698 156.078C173.467 154.25 175.749 151.915 177.416 151.262C179.075 150.609 181.133 150.955 182.378 152.237C183.983 153.897 183.868 156.746 182.501 158.605C181.133 160.464 178.775 161.401 176.471 161.547" fill="#F07A75"/>
<path d="M149.208 168.03C155.683 177.87 172.882 180.513 177.491 168.407C178.881 164.766 179.089 161.309 177.506 157.315C177.867 136.076 160.553 133.126 146.996 143.68C145.029 145.209 143.877 147.575 143.977 150.071C144.276 157.169 149.208 168.03 149.208 168.03Z" fill="#FDA492"/>
<path d="M145.321 165.081C146.389 165.526 147.28 165.265 148.279 165.864C149.631 160.341 150.913 155.187 149.508 149.533C151.712 151.377 154.839 150.616 157.335 149.549C159.832 148.473 162.597 147.183 165.201 148.266C164.917 146.999 164.156 145.831 163.119 145.086C166.722 145.585 170.255 146.822 173.482 148.704C173.973 147.144 173.797 145.324 172.99 143.849C175.579 145.04 177.622 147.613 178.751 149.941C180.364 147.221 179.151 143.004 176.324 141.491C177.568 140.922 179.212 141.422 180.065 142.628C179.719 141.429 179.22 140.277 178.574 139.21C176.178 135.23 171.922 132.411 167.536 132.181C168.304 131.298 168.565 129.953 168.212 128.763C166.253 130.752 163.427 131.52 160.677 131.866C157.927 132.204 155.138 132.342 152.427 132.926C145.437 134.447 141.972 137.627 142.641 143.503C141.373 144.003 140.328 145.017 139.691 146.038C139.284 146.653 139.046 147.275 138.999 147.774C138.884 149.065 139.222 150.386 139.591 151.653C141.089 156.677 142.856 160.387 145.321 165.081Z" fill="#7B3349"/>
<path d="M139.689 146.023C140.965 144.832 142.608 144.041 144.337 143.841C143.446 140.976 145.504 137.88 148.177 136.513C150.843 135.153 153.954 135.061 156.95 134.877C159.938 134.693 163.087 134.332 165.499 132.549C165.115 133.379 164.723 134.209 164.339 135.038C169.378 134.063 174.817 135.722 178.573 139.194C176.176 135.215 171.921 132.396 167.535 132.165C168.303 131.282 168.564 129.938 168.211 128.747C166.252 130.737 163.425 131.505 160.675 131.85C157.925 132.188 155.137 132.327 152.425 132.91C145.435 134.431 141.971 137.611 142.639 143.488C141.372 143.995 140.335 145.009 139.689 146.023Z" fill="#A34B54"/>
<path d="M149.699 161.347C148.869 159.696 145.681 159.027 143.93 159.404C142.186 159.78 140.665 161.209 140.343 162.968C139.936 165.242 141.603 167.546 143.776 168.33C145.95 169.113 148.424 168.583 150.421 167.431" fill="#FDA492"/>
<path d="M170.523 152.561C170.685 151.032 171.945 149.673 173.458 149.396C174.979 149.112 176.63 149.926 177.329 151.301C175.248 150.902 173.02 151.255 170.523 152.561Z" fill="#7B3349"/>
<path d="M163.602 154.636C162.412 153.653 160.614 153.453 159.216 154.144C157.818 154.835 156.889 156.379 156.95 157.916C158.556 156.241 160.776 155.166 163.602 154.636Z" fill="#7B3349"/>
<path d="M163.811 162.279C164.375 162.279 164.832 161.821 164.832 161.257C164.832 160.693 164.375 160.235 163.811 160.235C163.246 160.235 162.789 160.693 162.789 161.257C162.789 161.821 163.246 162.279 163.811 162.279Z" fill="#27304A"/>
<path d="M173.58 159.521C174.144 159.521 174.602 159.063 174.602 158.499C174.602 157.935 174.144 157.478 173.58 157.478C173.016 157.478 172.559 157.935 172.559 158.499C172.559 159.063 173.016 159.521 173.58 159.521Z" fill="#27304A"/>
<path d="M171.275 166.319C169.125 166.964 165.13 167.041 162.803 166.157C163.102 172.072 171.083 172.087 171.275 166.319Z" fill="white"/>
<path d="M171.56 161.864C171.307 162.947 170.738 163.923 169.947 164.622C170.569 164.729 171.215 164.468 171.591 163.954C171.96 163.447 172.052 162.709 171.56 161.864Z" fill="#F07A75"/>
</svg>
