<svg width="444" height="343" viewBox="0 0 444 343" fill="none" xmlns="http://www.w3.org/2000/svg">
<path d="M175.713 324.441L181.791 311.851H184.83L188.521 314.456L181.14 326.829C177.146 328.219 175.858 325.816 175.713 324.441Z" fill="#F5CAD1"/>
<path d="M144.019 255.844L55.8848 266.915L60.0093 283.413L74.1195 335.078C76.0298 342.025 80.5595 341.88 82.5856 340.939L84.9735 339.854L145.539 314.89L206.538 289.708L255.381 269.52L332.662 235.656V232.616L267.321 240.431L144.019 255.844Z" fill="#8DB8E2"/>
<path d="M55.8858 266.698L24.6263 327.697C23.4107 334.644 29.0403 334.789 32.007 333.993L70.4302 322.27L55.8858 266.698Z" fill="#5693CA"/>
<path d="M31.7897 303.602L47.4194 256.278L1.61557 293.182C-1.33672 298.044 2.55625 300.273 4.87177 300.78L31.7897 303.602Z" fill="#5A99CF"/>
<path d="M190.04 315.107L209.143 288.623L182.008 299.911L180.055 310.331C182.312 313.978 187.652 315.035 190.04 315.107Z" fill="#C6E2F7"/>
<path d="M201.981 241.734L47.203 256.495L37.0002 288.189L25.9291 321.836C25.0608 324.441 24.8438 326.685 24.8438 327.48L55.8862 266.698L205.671 248.246L332.88 232.182L201.981 241.734Z" fill="#25578A"/>
<path d="M188.955 223.933L164.859 218.94C162.08 219.809 158.491 223.499 157.044 225.236C156.176 227.841 151.038 231.676 148.578 233.268C134.685 238.825 124.844 236.452 121.66 234.57C124.265 254.715 162.688 262.791 181.574 264.31C178.969 266.047 172.24 273.572 169.201 277.118C161.907 286.496 152.703 303.457 149.012 310.765C150.402 314.412 155.235 316.916 157.478 317.712L191.126 289.708L212.834 269.954C224.296 258.145 208.926 246.075 202.197 241.951L226.727 239.78C224.817 234.918 218.116 231.965 215.005 231.097C213.094 230.229 196.842 225.959 188.955 223.933Z" fill="#C6E2F7"/>
<path d="M143.369 135.148C139.375 136.19 135.771 133.266 134.469 131.674L131.43 123.208L135.771 113.44L151.184 114.091C153.268 115.307 152.631 121.544 152.052 124.511C151.01 132.152 145.829 134.786 143.369 135.148Z" fill="#F7C9D3"/>
<path d="M145.54 142.094C139.809 144.005 133.89 139.706 131.647 137.318L131.213 134.279C131.213 132.036 131.864 128.375 134.469 131.674C137.074 134.974 141.343 135.365 143.152 135.148L145.54 142.094Z" fill="#DDAEB8"/>
<path d="M189.172 154.685L179.838 169.229L185.482 175.959L197.421 156.204L197.204 155.553L189.172 154.685Z" fill="#1A2E51"/>
<path d="M189.606 155.553L182.008 167.927L186.349 172.92L196.118 156.856L196.335 156.204L189.606 155.553Z" fill="#84B7E2"/>
<path d="M165.729 169.229C160.171 171.834 158.203 168.578 157.914 166.624C152.704 168.361 155.743 178.926 157.914 183.991C169.897 178.781 178.536 169.953 181.358 166.19C185.874 161.154 188.739 156.422 189.607 154.685V154.251C184.919 153.73 180.507 159.244 177.234 162.283C174.803 164.54 168.551 167.854 165.729 169.229Z" fill="#EEB7BC"/>
<path d="M146.191 141.66C141.329 144.091 135.048 140.213 132.515 137.97C128.868 139.88 124.194 148.751 122.312 152.948C118.665 159.374 116.741 173.281 116.234 179.432L114.932 220.677C115.8 235.612 125.713 237.609 130.561 236.741C145.67 237.957 154.513 230.59 157.045 226.755C158.434 223.282 163.702 219.954 166.163 218.723C161.995 216.987 159.505 204.686 158.782 198.752L158.348 170.749C157.306 152.167 150.099 143.18 146.191 141.66Z" fill="url(#paint0_linear_1560_6126)"/>
<path d="M141.197 322.488L150.532 312.936C150.705 312.758 154.512 315.612 156.393 317.061L145.756 326.612C142.283 326.438 141.27 323.79 141.197 322.488Z" fill="#F5CAD1"/>
<path d="M137.073 324.875C138.288 322.618 140.474 322.198 141.414 322.27C141.414 326.091 144.598 326.612 146.19 326.395C149.316 329 151.979 335.006 152.919 337.683C153.267 340.462 150.749 339.999 149.446 339.42C145.799 338.551 139.678 331.098 137.073 327.48C136.552 326.786 136.856 325.454 137.073 324.875Z" fill="#1F355E"/>
<path d="M172.263 327.737C172.758 325.221 174.722 324.175 175.642 323.966C176.77 327.616 179.966 327.174 181.422 326.496C185.178 328.062 189.496 333.014 191.185 335.294C192.338 337.846 189.795 338.147 188.38 337.979C184.639 338.226 176.59 332.913 173.032 330.226C172.329 329.716 172.227 328.354 172.263 327.737Z" fill="#1F355E"/>
<path d="M135.119 143.179C129.562 142.832 127.16 147.376 126.653 149.692C125.785 154.554 129.186 171.11 130.995 178.781C133.773 190.937 138.375 197.739 140.329 199.62C142.239 202.052 145.756 201.646 147.276 201.14L158.781 197.015C172.674 190.937 179.693 184.714 183.528 181.168C189.259 177.522 189.534 172.268 188.955 170.097L186.35 174.873H185.916C185.569 172.615 186.929 169.736 187.653 168.578C188 167.362 186.929 167.637 186.35 167.927C184.613 168.969 183.166 171.834 182.66 173.136L182.008 172.051C181.314 172.398 179.838 175.38 179.186 176.827L164.208 184.425C158.824 186.856 154.584 187.174 153.137 187.03C150.358 187.03 149.664 184.569 149.664 183.339L148.144 173.788C146.755 159.026 145.25 152.586 144.671 151.211C143.108 144.439 137.652 143.035 135.119 143.179Z" fill="#EEB7BC"/>
<path d="M104.728 126.03C92.2241 127.593 85.7695 129.576 84.1053 130.372C74.9011 133.845 73.3236 140.502 73.6854 143.397C76.1167 161.11 95.9723 165.828 105.596 165.973C117.579 166.841 120.575 156.06 120.575 150.56C120.922 144.308 124.772 142.022 126.653 141.66C133.773 138.708 136.132 130.589 136.422 126.898L136.639 121.906C136.465 119.995 138.013 119.084 138.809 118.867L142.066 119.084C150.575 119.778 152.413 112.716 152.268 109.098C152.095 98.1571 141.631 96.8691 136.422 97.5927C130.777 98.2439 123.614 99.7635 117.97 111.486C113.87 120.002 107.912 124.872 104.728 126.03Z" fill="#213365"/>
<g filter="url(#filter0_f_1560_6126)">
<path d="M326.32 91.9014C329.269 92.6792 331.953 96.4951 334.149 98.4815C340.949 104.632 348.299 109.939 355.94 114.86C371.939 125.166 389.053 133.071 407.216 138.034C414.673 140.071 420.954 142.611 430.024 142.611C440.191 141.497 445.511 126.67 440.191 118.561C431.153 101.508 413.546 98.4815 402.844 107.439C396.705 111.605 395.591 119.816 394.066 124.909C391.085 134.873 389.461 145.873 388.813 156.272C386.753 189.35 388.813 178.022 391.217 201.775" stroke="#AACFD8" stroke-width="2" stroke-linecap="round" stroke-dasharray="4 5"/>
</g>
<rect x="363.666" y="208.01" width="53.0563" height="53.0563" rx="14" fill="url(#paint1_linear_1560_6126)"/>
<path d="M401.691 227.908C397.787 221.849 389.791 220.053 383.607 223.812C377.572 227.572 375.629 235.763 379.534 241.804L379.852 242.29L378.544 247.191L383.439 245.881L383.924 246.199C386.036 247.34 388.334 247.995 390.613 247.995C393.06 247.995 395.508 247.34 397.619 246.031C403.653 242.103 405.447 234.08 401.691 227.871V227.908ZM398.273 240.514C397.619 241.486 396.797 242.141 395.657 242.309C395.003 242.309 394.181 242.627 390.93 241.337C388.165 240.027 385.867 237.895 384.242 235.445C383.271 234.304 382.766 232.827 382.617 231.349C382.617 230.04 383.102 228.899 383.924 228.077C384.242 227.759 384.578 227.59 384.896 227.59H385.718C386.036 227.59 386.372 227.59 386.54 228.245C386.858 229.068 387.68 231.032 387.68 231.2C387.848 231.368 387.773 232.621 387.026 233.332C386.615 233.8 386.54 233.818 386.708 234.155C387.362 235.127 388.184 236.119 388.987 236.942C389.959 237.764 390.949 238.419 392.089 238.905C392.406 239.074 392.743 239.074 392.911 238.737C393.079 238.419 393.882 237.596 394.219 237.259C394.536 236.942 394.704 236.942 395.041 237.091L397.656 238.4C397.974 238.569 398.31 238.718 398.478 238.887C398.646 239.373 398.646 240.027 398.31 240.514H398.273Z" fill="white"/>
<g filter="url(#filter1_f_1560_6126)">
<path d="M83.6719 98.027L131.212 74.5823C147.132 66.8398 178.753 46.0146 177.885 24.654C177.016 3.29329 157.262 0.992241 147.493 2.5118C139.678 6.41924 126.22 19.1401 134.903 38.7641C143.586 58.3882 195.83 66.478 220.866 68.0699L261.895 72.8457" stroke="#AACFD8" stroke-width="2" stroke-linecap="round" stroke-dasharray="4 5"/>
</g>
<path d="M164.643 16.6221L138.811 33.9885L150.967 38.3301L159.216 47.4474L164.643 16.6221Z" fill="#C4DEF7"/>
<path d="M164.642 16.6221L148.795 37.4617L150.966 38.3301L152.268 39.8496L164.642 16.6221Z" fill="#71A8DE" stroke="#71A8DE"/>
<path d="M5.74482 75.4664C1.57689 75.4664 0.679625 78.3608 0.751985 79.808V103.036C0.751985 107.03 4.5149 107.594 6.39637 107.377H66.5275H67.3958C71.7374 107.377 72.0992 103.614 71.7374 101.733L78.2498 98.0427C81.7231 96.4797 79.697 94.7865 78.2498 94.1352L71.7374 90.0107V80.4592C72.2584 76.1176 68.4812 75.3216 66.5275 75.4664H5.74482Z" fill="url(#paint2_linear_1560_6126)"/>
<path d="M8.34633 88.0413C5.74137 88.215 5.52429 89.8503 5.74137 90.6463V101.283C5.74137 104.409 7.26089 104.322 8.34633 104.322H43.2962C45.3801 104.322 45.7564 102.296 45.684 101.283V90.6463C45.684 88.215 44.0921 87.8966 43.2962 88.0413H8.34633Z" fill="white"/>
<path d="M24.1926 91.7317L18.7656 102.369H33.0929L28.7513 93.6854L27.0147 97.1587L24.1926 91.7317Z" fill="#78AADD"/>
<ellipse cx="9.2138" cy="82.1801" rx="3.69036" ry="3.69036" fill="#D8EAF9"/>
<rect x="16.377" y="79.7922" width="24.313" height="1.30248" fill="url(#paint3_linear_1560_6126)"/>
<rect x="44.5977" y="79.7922" width="18.2347" height="1.30248" fill="url(#paint4_linear_1560_6126)"/>
<rect x="49.373" y="89.3438" width="17.3664" height="1.30248" fill="url(#paint5_linear_1560_6126)"/>
<rect x="49.373" y="92.3828" width="15.6298" height="1.30248" fill="url(#paint6_linear_1560_6126)"/>
<rect x="49.373" y="98.0269" width="13.459" height="1.30248" fill="url(#paint7_linear_1560_6126)"/>
<rect x="41.9922" y="82.8313" width="10.4198" height="1.30248" fill="url(#paint8_linear_1560_6126)"/>
<rect x="16.377" y="82.8313" width="21.2738" height="1.30248" fill="url(#paint9_linear_1560_6126)"/>
<rect x="49.373" y="101.066" width="7.38072" height="1.30248" fill="url(#paint10_linear_1560_6126)"/>
<circle cx="33.5274" cy="91.2976" r="1.51956" fill="#78AADD"/>
<rect x="266.453" y="55.0449" width="53.0563" height="53.0563" rx="14" fill="url(#paint11_linear_1560_6126)"/>
<path d="M306.396 71.543H279.478L290.983 83.0482C292.894 85.1322 294.24 83.9165 294.674 83.0482L306.396 71.543Z" fill="white"/>
<path d="M307.482 90.2118V72.4113L297.93 81.5286L307.482 90.2118Z" fill="white"/>
<path d="M297.279 82.397L307.047 91.2972H278.827L288.596 82.397L290.983 84.7848C292.894 86.1742 294.24 85.0743 294.674 84.3507L297.279 82.397Z" fill="white"/>
<path d="M278.176 72.4113L287.727 81.5286L278.176 90.2118V72.4113Z" fill="white"/>
<circle cx="267.105" cy="59.1695" r="7.16364" fill="url(#paint12_linear_1560_6126)"/>
<path d="M268.319 59.9891H268.968V60.669H268.319V62.1226H267.569V60.669H264.881L264.717 60.2001L267.874 56.3474H268.319V59.9891ZM267.569 57.7619L265.748 59.9891H267.569V57.7619Z" fill="white"/>
<defs>
<filter id="filter0_f_1560_6126" x="324.82" y="90.4011" width="118.967" height="112.874" filterUnits="userSpaceOnUse" color-interpolation-filters="sRGB">
<feFlood flood-opacity="0" result="BackgroundImageFix"/>
<feBlend mode="normal" in="SourceGraphic" in2="BackgroundImageFix" result="shape"/>
<feGaussianBlur stdDeviation="0.25" result="effect1_foregroundBlur_1560_6126"/>
</filter>
<filter id="filter1_f_1560_6126" x="82.1719" y="0.674072" width="181.223" height="98.853" filterUnits="userSpaceOnUse" color-interpolation-filters="sRGB">
<feFlood flood-opacity="0" result="BackgroundImageFix"/>
<feBlend mode="normal" in="SourceGraphic" in2="BackgroundImageFix" result="shape"/>
<feGaussianBlur stdDeviation="0.25" result="effect1_foregroundBlur_1560_6126"/>
</filter>
<linearGradient id="paint0_linear_1560_6126" x1="119.924" y1="165.973" x2="157.262" y2="209.823" gradientUnits="userSpaceOnUse">
<stop stop-color="#2A5791"/>
<stop offset="1" stop-color="#043057"/>
</linearGradient>
<linearGradient id="paint1_linear_1560_6126" x1="390.194" y1="208.01" x2="390.194" y2="261.067" gradientUnits="userSpaceOnUse">
<stop stop-color="#71A6DC"/>
<stop offset="1" stop-color="#ABC8E6"/>
</linearGradient>
<linearGradient id="paint2_linear_1560_6126" x1="2.48469" y1="87.6072" x2="71.7332" y2="89.1267" gradientUnits="userSpaceOnUse">
<stop stop-color="#9FC3EC"/>
<stop offset="1" stop-color="#6CA5DC"/>
</linearGradient>
<linearGradient id="paint3_linear_1560_6126" x1="28.5334" y1="79.7922" x2="38.9084" y2="79.7922" gradientUnits="userSpaceOnUse">
<stop stop-color="#D9F0FF"/>
<stop offset="1" stop-color="#A8D4FB"/>
</linearGradient>
<linearGradient id="paint4_linear_1560_6126" x1="53.715" y1="79.7922" x2="61.4962" y2="79.7922" gradientUnits="userSpaceOnUse">
<stop stop-color="#D9F0FF"/>
<stop offset="1" stop-color="#A8D4FB"/>
</linearGradient>
<linearGradient id="paint5_linear_1560_6126" x1="58.0562" y1="89.3438" x2="65.4669" y2="89.3438" gradientUnits="userSpaceOnUse">
<stop stop-color="#D9F0FF"/>
<stop offset="1" stop-color="#A8D4FB"/>
</linearGradient>
<linearGradient id="paint6_linear_1560_6126" x1="57.1879" y1="92.3828" x2="63.8575" y2="92.3828" gradientUnits="userSpaceOnUse">
<stop stop-color="#D9F0FF"/>
<stop offset="1" stop-color="#A8D4FB"/>
</linearGradient>
<linearGradient id="paint7_linear_1560_6126" x1="56.1025" y1="98.0269" x2="61.8458" y2="98.0269" gradientUnits="userSpaceOnUse">
<stop stop-color="#D9F0FF"/>
<stop offset="1" stop-color="#A8D4FB"/>
</linearGradient>
<linearGradient id="paint8_linear_1560_6126" x1="47.2021" y1="82.8313" x2="51.6485" y2="82.8313" gradientUnits="userSpaceOnUse">
<stop stop-color="#D9F0FF"/>
<stop offset="1" stop-color="#A8D4FB"/>
</linearGradient>
<linearGradient id="paint9_linear_1560_6126" x1="27.0139" y1="82.8313" x2="36.0919" y2="82.8313" gradientUnits="userSpaceOnUse">
<stop stop-color="#D9F0FF"/>
<stop offset="1" stop-color="#A8D4FB"/>
</linearGradient>
<linearGradient id="paint10_linear_1560_6126" x1="53.0634" y1="101.066" x2="56.2129" y2="101.066" gradientUnits="userSpaceOnUse">
<stop stop-color="#D9F0FF"/>
<stop offset="1" stop-color="#A8D4FB"/>
</linearGradient>
<linearGradient id="paint11_linear_1560_6126" x1="292.981" y1="55.0449" x2="292.981" y2="108.101" gradientUnits="userSpaceOnUse">
<stop stop-color="#71A6DC"/>
<stop offset="1" stop-color="#ABC8E6"/>
</linearGradient>
<linearGradient id="paint12_linear_1560_6126" x1="259.941" y1="58.9524" x2="272.749" y2="61.9915" gradientUnits="userSpaceOnUse">
<stop stop-color="#71A5DE"/>
<stop offset="1" stop-color="#4572B3"/>
</linearGradient>
</defs>
</svg>
