<svg width="670" height="365" viewBox="0 0 670 365" fill="none" xmlns="http://www.w3.org/2000/svg">
<path d="M658 0H12C5.37258 0 0 5.37259 0 12V353C0 359.627 5.37257 365 12 365H658C664.627 365 670 359.627 670 353V12C670 5.37258 664.627 0 658 0Z" fill="#EBF8FF"/>
<path d="M470.92 209.88C473.773 209.88 476.133 210.773 478 212.56C479.92 214.347 480.88 216.653 480.88 219.48C480.88 222.36 479.88 224.747 477.88 226.64C475.853 228.533 473.227 229.48 470 229.48C466.48 229.48 463.213 228.373 460.2 226.16L462.4 221.8C464.88 223.56 467.333 224.44 469.76 224.44C471.44 224.44 472.8 223.973 473.84 223.04C474.88 222.107 475.4 220.92 475.4 219.48C475.4 218.093 474.893 216.947 473.88 216.04C472.893 215.107 471.627 214.64 470.08 214.64C468.107 214.64 466.427 215.333 465.04 216.72L461.8 214.24L463.44 199.44H478.88V204.44H467.52L466.76 210.72C468.04 210.16 469.427 209.88 470.92 209.88ZM502.038 217.4H505.238V222H502.038V229H496.918V222H483.718L482.638 218.52L498.238 199.44H502.038V217.4ZM496.918 207.64L488.998 217.4H496.918V207.64ZM520.572 229.48C517.932 229.48 515.692 228.747 513.852 227.28C512.012 225.787 510.692 223.92 509.892 221.68C509.092 219.44 508.692 216.947 508.692 214.2C508.692 211.453 509.092 208.96 509.892 206.72C510.692 204.48 512.012 202.627 513.852 201.16C515.692 199.667 517.932 198.92 520.572 198.92C522.172 198.92 523.638 199.2 524.972 199.76C526.305 200.32 527.425 201.08 528.332 202.04C529.238 202.973 529.998 204.093 530.612 205.4C531.252 206.707 531.718 208.093 532.012 209.56C532.305 211.027 532.452 212.573 532.452 214.2C532.452 215.827 532.305 217.373 532.012 218.84C531.718 220.307 531.252 221.693 530.612 223C529.998 224.307 529.238 225.44 528.332 226.4C527.425 227.333 526.305 228.08 524.972 228.64C523.638 229.2 522.172 229.48 520.572 229.48ZM520.572 224.36C522.732 224.36 524.332 223.427 525.372 221.56C526.438 219.693 526.972 217.24 526.972 214.2C526.972 211.187 526.438 208.747 525.372 206.88C524.278 204.987 522.678 204.04 520.572 204.04C518.465 204.04 516.865 204.987 515.772 206.88C514.705 208.747 514.172 211.187 514.172 214.2C514.172 217.24 514.705 219.693 515.772 221.56C516.838 223.427 518.438 224.36 520.572 224.36Z" fill="black"/>
<path d="M452.496 249H451.209V239.393H451.833L455.98 245.49L460.101 239.393H460.738V249H459.438V242.513L456.136 247.362H455.798L452.496 242.513V249ZM469.319 245.386C469.319 245.473 469.306 245.685 469.28 246.023H463.729C463.841 246.638 464.101 247.124 464.509 247.479C464.916 247.834 465.471 248.012 466.173 248.012C466.589 248.012 467.018 247.943 467.46 247.804C467.902 247.657 468.283 247.466 468.604 247.232L469.137 248.181C468.773 248.458 468.322 248.692 467.785 248.883C467.247 249.065 466.701 249.156 466.147 249.156C465.514 249.156 464.951 249.052 464.457 248.844C463.971 248.636 463.586 248.354 463.3 247.999C463.014 247.644 462.797 247.254 462.65 246.829C462.502 246.404 462.429 245.958 462.429 245.49C462.429 244.45 462.754 243.583 463.404 242.89C464.062 242.205 464.912 241.863 465.952 241.863C466.94 241.863 467.746 242.179 468.37 242.812C469.002 243.445 469.319 244.303 469.319 245.386ZM463.729 244.944H468.032C467.997 244.346 467.785 243.869 467.395 243.514C467.013 243.15 466.532 242.968 465.952 242.968C465.388 242.968 464.903 243.154 464.496 243.527C464.088 243.891 463.833 244.363 463.729 244.944ZM472.742 249.156C472.205 249.156 471.702 249.026 471.234 248.766C470.775 248.506 470.415 248.133 470.155 247.648L471.052 246.959C471.243 247.314 471.494 247.587 471.806 247.778C472.127 247.969 472.452 248.064 472.781 248.064C473.145 248.064 473.44 247.973 473.665 247.791C473.899 247.6 474.016 247.371 474.016 247.102C474.016 246.729 473.804 246.435 473.379 246.218C473.266 246.157 472.976 246.027 472.508 245.828C472.075 245.646 471.789 245.516 471.65 245.438C470.939 245.048 470.584 244.485 470.584 243.748C470.584 243.185 470.792 242.721 471.208 242.357C471.615 241.984 472.166 241.798 472.859 241.798C473.31 241.798 473.734 241.893 474.133 242.084C474.532 242.275 474.844 242.548 475.069 242.903L474.276 243.657C473.895 243.12 473.396 242.851 472.781 242.851C472.478 242.851 472.235 242.933 472.053 243.098C471.871 243.254 471.78 243.453 471.78 243.696C471.78 244.06 471.975 244.333 472.365 244.515L473.132 244.853C473.548 245.018 473.86 245.161 474.068 245.282C474.857 245.681 475.251 246.266 475.251 247.037C475.251 247.635 475.017 248.138 474.549 248.545C474.072 248.952 473.47 249.156 472.742 249.156ZM478.633 249.156C478.095 249.156 477.593 249.026 477.125 248.766C476.665 248.506 476.306 248.133 476.046 247.648L476.943 246.959C477.133 247.314 477.385 247.587 477.697 247.778C478.017 247.969 478.342 248.064 478.672 248.064C479.036 248.064 479.33 247.973 479.556 247.791C479.79 247.6 479.907 247.371 479.907 247.102C479.907 246.729 479.694 246.435 479.27 246.218C479.157 246.157 478.867 246.027 478.399 245.828C477.965 245.646 477.679 245.516 477.541 245.438C476.83 245.048 476.475 244.485 476.475 243.748C476.475 243.185 476.683 242.721 477.099 242.357C477.506 241.984 478.056 241.798 478.75 241.798C479.2 241.798 479.625 241.893 480.024 242.084C480.422 242.275 480.734 242.548 480.96 242.903L480.167 243.657C479.785 243.12 479.287 242.851 478.672 242.851C478.368 242.851 478.126 242.933 477.944 243.098C477.762 243.254 477.671 243.453 477.671 243.696C477.671 244.06 477.866 244.333 478.256 244.515L479.023 244.853C479.439 245.018 479.751 245.161 479.959 245.282C480.747 245.681 481.142 246.266 481.142 247.037C481.142 247.635 480.908 248.138 480.44 248.545C479.963 248.952 479.361 249.156 478.633 249.156ZM488.098 243.046V242.032H489.294V249H488.098V248.012C487.474 248.783 486.655 249.169 485.641 249.169C484.636 249.169 483.804 248.814 483.145 248.103C482.486 247.392 482.157 246.513 482.157 245.464C482.157 244.415 482.486 243.557 483.145 242.89C483.804 242.205 484.636 241.863 485.641 241.863C486.629 241.863 487.448 242.257 488.098 243.046ZM488.176 245.503C488.176 244.801 487.955 244.212 487.513 243.735C487.071 243.25 486.495 243.007 485.784 243.007C485.073 243.007 484.501 243.25 484.068 243.735C483.635 244.22 483.418 244.814 483.418 245.516C483.418 246.218 483.635 246.812 484.068 247.297C484.501 247.782 485.073 248.025 485.784 248.025C486.495 248.025 487.071 247.782 487.513 247.297C487.955 246.82 488.176 246.222 488.176 245.503ZM496.744 242.942V242.032H497.979V248.285C497.979 249.403 497.641 250.296 496.965 250.963C496.28 251.63 495.374 251.964 494.248 251.964C493.112 251.964 492.085 251.635 491.167 250.976L491.752 249.988C492.514 250.551 493.342 250.833 494.235 250.833C495.006 250.833 495.617 250.612 496.068 250.17C496.518 249.745 496.744 249.186 496.744 248.493V247.921C496.12 248.649 495.305 249.013 494.3 249.013C493.294 249.013 492.462 248.671 491.804 247.986C491.136 247.293 490.803 246.439 490.803 245.425C490.803 244.411 491.145 243.566 491.83 242.89C492.514 242.205 493.359 241.863 494.365 241.863C495.327 241.863 496.12 242.223 496.744 242.942ZM492.74 247.193C493.199 247.661 493.767 247.895 494.443 247.895C495.127 247.895 495.695 247.661 496.146 247.193C496.596 246.734 496.822 246.149 496.822 245.438C496.822 244.727 496.596 244.147 496.146 243.696C495.686 243.228 495.119 242.994 494.443 242.994C493.758 242.994 493.19 243.228 492.74 243.696C492.289 244.147 492.064 244.727 492.064 245.438C492.064 246.149 492.289 246.734 492.74 247.193ZM506.376 245.386C506.376 245.473 506.363 245.685 506.337 246.023H500.786C500.899 246.638 501.159 247.124 501.566 247.479C501.974 247.834 502.528 248.012 503.23 248.012C503.646 248.012 504.075 247.943 504.517 247.804C504.959 247.657 505.341 247.466 505.661 247.232L506.194 248.181C505.83 248.458 505.38 248.692 504.842 248.883C504.305 249.065 503.759 249.156 503.204 249.156C502.572 249.156 502.008 249.052 501.514 248.844C501.029 248.636 500.643 248.354 500.357 247.999C500.071 247.644 499.855 247.254 499.707 246.829C499.56 246.404 499.486 245.958 499.486 245.49C499.486 244.45 499.811 243.583 500.461 242.89C501.12 242.205 501.969 241.863 503.009 241.863C503.997 241.863 504.803 242.179 505.427 242.812C506.06 243.445 506.376 244.303 506.376 245.386ZM500.786 244.944H505.089C505.055 244.346 504.842 243.869 504.452 243.514C504.071 243.15 503.59 242.968 503.009 242.968C502.446 242.968 501.961 243.154 501.553 243.527C501.146 243.891 500.89 244.363 500.786 244.944ZM509.8 249.156C509.262 249.156 508.76 249.026 508.292 248.766C507.832 248.506 507.473 248.133 507.213 247.648L508.11 246.959C508.3 247.314 508.552 247.587 508.864 247.778C509.184 247.969 509.509 248.064 509.839 248.064C510.203 248.064 510.497 247.973 510.723 247.791C510.957 247.6 511.074 247.371 511.074 247.102C511.074 246.729 510.861 246.435 510.437 246.218C510.324 246.157 510.034 246.027 509.566 245.828C509.132 245.646 508.846 245.516 508.708 245.438C507.997 245.048 507.642 244.485 507.642 243.748C507.642 243.185 507.85 242.721 508.266 242.357C508.673 241.984 509.223 241.798 509.917 241.798C510.367 241.798 510.792 241.893 511.191 242.084C511.589 242.275 511.901 242.548 512.127 242.903L511.334 243.657C510.952 243.12 510.454 242.851 509.839 242.851C509.535 242.851 509.293 242.933 509.111 243.098C508.929 243.254 508.838 243.453 508.838 243.696C508.838 244.06 509.033 244.333 509.423 244.515L510.19 244.853C510.606 245.018 510.918 245.161 511.126 245.282C511.914 245.681 512.309 246.266 512.309 247.037C512.309 247.635 512.075 248.138 511.607 248.545C511.13 248.952 510.528 249.156 509.8 249.156ZM518.915 249.156C518.378 249.156 517.875 249.026 517.407 248.766C516.948 248.506 516.588 248.133 516.328 247.648L517.225 246.959C517.416 247.314 517.667 247.587 517.979 247.778C518.3 247.969 518.625 248.064 518.954 248.064C519.318 248.064 519.613 247.973 519.838 247.791C520.072 247.6 520.189 247.371 520.189 247.102C520.189 246.729 519.977 246.435 519.552 246.218C519.439 246.157 519.149 246.027 518.681 245.828C518.248 245.646 517.962 245.516 517.823 245.438C517.112 245.048 516.757 244.485 516.757 243.748C516.757 243.185 516.965 242.721 517.381 242.357C517.788 241.984 518.339 241.798 519.032 241.798C519.483 241.798 519.907 241.893 520.306 242.084C520.705 242.275 521.017 242.548 521.242 242.903L520.449 243.657C520.068 243.12 519.569 242.851 518.954 242.851C518.651 242.851 518.408 242.933 518.226 243.098C518.044 243.254 517.953 243.453 517.953 243.696C517.953 244.06 518.148 244.333 518.538 244.515L519.305 244.853C519.721 245.018 520.033 245.161 520.241 245.282C521.03 245.681 521.424 246.266 521.424 247.037C521.424 247.635 521.19 248.138 520.722 248.545C520.245 248.952 519.643 249.156 518.915 249.156ZM529.342 245.386C529.342 245.473 529.329 245.685 529.303 246.023H523.752C523.865 246.638 524.125 247.124 524.532 247.479C524.94 247.834 525.494 248.012 526.196 248.012C526.612 248.012 527.041 247.943 527.483 247.804C527.925 247.657 528.307 247.466 528.627 247.232L529.16 248.181C528.796 248.458 528.346 248.692 527.808 248.883C527.271 249.065 526.725 249.156 526.17 249.156C525.538 249.156 524.974 249.052 524.48 248.844C523.995 248.636 523.609 248.354 523.323 247.999C523.037 247.644 522.821 247.254 522.673 246.829C522.526 246.404 522.452 245.958 522.452 245.49C522.452 244.45 522.777 243.583 523.427 242.89C524.086 242.205 524.935 241.863 525.975 241.863C526.963 241.863 527.769 242.179 528.393 242.812C529.026 243.445 529.342 244.303 529.342 245.386ZM523.752 244.944H528.055C528.021 244.346 527.808 243.869 527.418 243.514C527.037 243.15 526.556 242.968 525.975 242.968C525.412 242.968 524.927 243.154 524.519 243.527C524.112 243.891 523.856 244.363 523.752 244.944ZM532.064 249H530.816V242.032H532.038V243.02C532.48 242.24 533.216 241.85 534.248 241.85C535.028 241.85 535.682 242.101 536.211 242.604C536.739 243.107 537.004 243.83 537.004 244.775V249H535.769V245.126C535.769 244.459 535.604 243.939 535.275 243.566C534.954 243.193 534.525 243.007 533.988 243.007C533.424 243.007 532.961 243.206 532.597 243.605C532.241 244.012 532.064 244.524 532.064 245.139V249ZM542.857 247.622L543.325 248.584C542.823 248.974 542.203 249.169 541.466 249.169C540.738 249.169 540.184 248.944 539.802 248.493C539.43 248.042 539.243 247.397 539.243 246.556V243.098H538.008V242.032H539.256V239.562H540.478V242.032H542.948V243.098H540.478V246.647C540.478 247.566 540.855 248.025 541.609 248.025C542.017 248.025 542.433 247.891 542.857 247.622Z" fill="black"/>
<path d="M590 223.5C590 275.139 548.139 317 496.5 317C444.861 317 403 275.139 403 223.5C403 171.861 444.861 130 496.5 130C548.139 130 590 171.861 590 223.5ZM423.605 223.5C423.605 263.759 456.241 296.395 496.5 296.395C536.759 296.395 569.395 263.759 569.395 223.5C569.395 183.241 536.759 150.605 496.5 150.605C456.241 150.605 423.605 183.241 423.605 223.5Z" fill="#49C47A"/>
<path d="M485.339 130.669C500.405 128.857 515.686 130.74 529.863 136.155L522.51 155.403C511.458 151.182 499.545 149.714 487.798 151.126L485.339 130.669Z" fill="#FFCB47"/>
<path d="M412.559 182.315C419.549 168.069 430.05 155.836 443.073 146.768C456.095 137.701 471.212 132.097 486.998 130.484L489.092 150.982C476.785 152.24 464.999 156.609 454.847 163.678C444.694 170.747 436.507 180.284 431.058 191.391L412.559 182.315Z" fill="#4074FC"/>
<path d="M57.106 290.039H292.146C296.742 282.791 299.244 274.217 298.614 264.631C298.002 255.31 294.718 246.879 289.853 239.254C281.295 225.837 267.846 214.911 255.46 206.012C248.683 201.143 239.846 189.839 249.779 187.381C322.941 169.276 288.271 132.363 283.504 125.719C271.341 108.767 244.838 119.727 222.724 119.727C199.175 119.727 189.002 79.0964 152.217 84.9895C107.208 92.2004 129.063 152.149 109.553 177.643C103.247 185.884 43.5536 211.621 48.2645 266.634C48.9665 274.816 51.9473 282.986 57.106 290.039Z" fill="#C9EBFF"/>
<mask id="mask0_1077_15866" style="mask-type:luminance" maskUnits="userSpaceOnUse" x="61" y="227" width="237" height="63">
<path d="M297.333 227.472H61.4062V289.043H297.333V227.472Z" fill="white"/>
</mask>
<g mask="url(#mask0_1077_15866)">
<path d="M144.025 294.582C144.025 294.582 156.643 295.698 158.192 283.998C162.8 283.145 165.273 281.006 166.127 277.356C166.527 275.645 166.193 274.126 165.202 273.03C170.625 270.604 172.94 264.261 170.783 261.609C169.838 260.447 164.198 258.977 161.829 263.738C161.23 261.294 155.132 259.253 152.949 267.914C147.277 266.161 143.685 267.663 143.622 279.774C138.426 276.874 139.826 290.384 139.826 290.384L144.025 294.582Z" fill="#B5E2FF"/>
<path d="M143.342 290.724C143.342 290.724 158.449 278.341 165.158 265.495" stroke="#94BAD1" stroke-width="1.1412" stroke-miterlimit="10" stroke-linecap="round" stroke-linejoin="round"/>
<path d="M166.904 268.792C166.904 268.792 164.466 268.826 162.354 270.158" stroke="#94BAD1" stroke-width="1.1412" stroke-miterlimit="10" stroke-linecap="round" stroke-linejoin="round"/>
<path d="M159.47 274.128C159.47 274.128 160.488 269.658 159.045 266.692" stroke="#94BAD1" stroke-width="1.1412" stroke-miterlimit="10" stroke-linecap="round" stroke-linejoin="round"/>
<path d="M154.915 286.448C154.915 286.448 151.214 285.362 148.037 286.705" stroke="#94BAD1" stroke-width="1.1412" stroke-miterlimit="10" stroke-linecap="round" stroke-linejoin="round"/>
<path d="M152.851 281.814C152.851 281.814 154.776 273.999 152.58 270.642" stroke="#94BAD1" stroke-width="1.1412" stroke-miterlimit="10" stroke-linecap="round" stroke-linejoin="round"/>
<path d="M163.118 276.813C163.118 276.813 160.163 276.032 156.941 277.238" stroke="#94BAD1" stroke-width="1.1412" stroke-miterlimit="10" stroke-linecap="round" stroke-linejoin="round"/>
<path d="M214.16 294.581C214.16 294.581 201.542 295.697 199.993 283.997C195.386 283.144 192.913 281.005 192.058 277.355C191.658 275.644 191.992 274.125 192.983 273.029C187.56 270.603 185.245 264.26 187.402 261.608C188.347 260.446 193.988 258.976 196.356 263.737C196.956 261.293 203.054 259.252 205.236 267.913C210.908 266.16 214.5 267.662 214.564 279.773C219.759 276.873 218.359 290.383 218.359 290.383L214.16 294.581Z" fill="#B5E2FF"/>
<path d="M214.84 290.724C214.84 290.724 199.733 278.341 193.023 265.495" stroke="#94BAD1" stroke-width="1.1412" stroke-miterlimit="10" stroke-linecap="round" stroke-linejoin="round"/>
<path d="M191.277 268.792C191.277 268.792 193.716 268.826 195.828 270.158" stroke="#94BAD1" stroke-width="1.1412" stroke-miterlimit="10" stroke-linecap="round" stroke-linejoin="round"/>
<path d="M198.712 274.128C198.712 274.128 197.694 269.658 199.137 266.692" stroke="#94BAD1" stroke-width="1.1412" stroke-miterlimit="10" stroke-linecap="round" stroke-linejoin="round"/>
<path d="M203.268 286.447C203.268 286.447 206.968 285.361 210.145 286.704" stroke="#94BAD1" stroke-width="1.1412" stroke-miterlimit="10" stroke-linecap="round" stroke-linejoin="round"/>
<path d="M205.33 281.814C205.33 281.814 203.405 273.999 205.6 270.642" stroke="#94BAD1" stroke-width="1.1412" stroke-miterlimit="10" stroke-linecap="round" stroke-linejoin="round"/>
<path d="M195.064 276.812C195.064 276.812 198.02 276.031 201.241 277.237" stroke="#94BAD1" stroke-width="1.1412" stroke-miterlimit="10" stroke-linecap="round" stroke-linejoin="round"/>
<path d="M118.991 285.883C118.991 285.883 118.199 268.201 101.708 268.222C99.6735 261.999 96.252 258.971 91.039 258.464C88.5956 258.226 86.5533 258.97 85.2193 260.546C80.8551 253.484 71.6408 251.453 68.3669 254.933C66.9326 256.457 65.9418 264.54 72.974 266.939C69.7009 268.222 68.0032 277.045 80.4031 278.463C79.0253 286.644 81.7703 291.341 98.5556 289.185C95.5021 296.917 113.954 292.477 113.954 292.477L118.991 285.883Z" fill="#B5E2FF"/>
<path d="M115.201 289.042C115.201 289.042 93.8255 268.912 74.791 261.999" stroke="#94BAD1" stroke-width="1.5946" stroke-miterlimit="10" stroke-linecap="round" stroke-linejoin="round"/>
<path d="M79.0332 258.971C79.0332 258.971 79.5318 262.341 81.7676 265.021" stroke="#94BAD1" stroke-width="1.5946" stroke-miterlimit="10" stroke-linecap="round" stroke-linejoin="round"/>
<path d="M87.7993 268.28C87.7993 268.28 81.4203 267.697 77.5801 270.246" stroke="#94BAD1" stroke-width="1.5946" stroke-miterlimit="10" stroke-linecap="round" stroke-linejoin="round"/>
<path d="M105.707 272.307C105.707 272.307 104.89 277.632 107.337 281.784" stroke="#94BAD1" stroke-width="1.5946" stroke-miterlimit="10" stroke-linecap="round" stroke-linejoin="round"/>
<path d="M99.6718 276.021C99.6718 276.021 88.4915 274.802 84.248 278.465" stroke="#94BAD1" stroke-width="1.5946" stroke-miterlimit="10" stroke-linecap="round" stroke-linejoin="round"/>
<path d="M90.844 262.729C90.844 262.729 90.3094 266.967 92.5756 271.206" stroke="#94BAD1" stroke-width="1.5946" stroke-miterlimit="10" stroke-linecap="round" stroke-linejoin="round"/>
<path d="M110.06 284.6C110.06 284.6 103.768 282.976 97.9492 285.643" stroke="#94BAD1" stroke-width="1.5946" stroke-miterlimit="10" stroke-linecap="round" stroke-linejoin="round"/>
<path d="M116.154 294.432C116.154 294.432 133.786 295.991 135.95 279.643C142.388 278.451 145.844 275.461 147.036 270.361C147.596 267.972 147.129 265.848 145.743 264.317C153.321 260.927 156.556 252.063 153.541 248.358C152.221 246.735 144.34 244.681 141.03 251.333C140.192 247.919 131.672 245.067 128.622 257.169C120.696 254.719 115.678 256.817 115.589 273.74C108.33 269.688 110.284 288.566 110.284 288.566L116.154 294.432Z" fill="#B5E2FF"/>
<path d="M115.203 289.044C115.203 289.044 136.312 271.742 145.687 253.791" stroke="#94BAD1" stroke-width="1.5946" stroke-miterlimit="10" stroke-linecap="round" stroke-linejoin="round"/>
<path d="M148.127 258.398C148.127 258.398 144.72 258.446 141.768 260.307" stroke="#94BAD1" stroke-width="1.5946" stroke-miterlimit="10" stroke-linecap="round" stroke-linejoin="round"/>
<path d="M137.736 265.852C137.736 265.852 139.159 259.607 137.143 255.462" stroke="#94BAD1" stroke-width="1.5946" stroke-miterlimit="10" stroke-linecap="round" stroke-linejoin="round"/>
<path d="M131.373 283.068C131.373 283.068 126.203 281.551 121.764 283.426" stroke="#94BAD1" stroke-width="1.5946" stroke-miterlimit="10" stroke-linecap="round" stroke-linejoin="round"/>
<path d="M128.491 276.594C128.491 276.594 131.181 265.674 128.113 260.982" stroke="#94BAD1" stroke-width="1.5946" stroke-miterlimit="10" stroke-linecap="round" stroke-linejoin="round"/>
<path d="M142.836 269.606C142.836 269.606 138.706 268.514 134.205 270.199" stroke="#94BAD1" stroke-width="1.5946" stroke-miterlimit="10" stroke-linecap="round" stroke-linejoin="round"/>
<path d="M258.794 285.883C258.794 285.883 258.002 268.201 241.511 268.222C239.476 261.999 236.055 258.971 230.842 258.464C228.398 258.226 226.356 258.97 225.022 260.546C220.657 253.484 211.443 251.453 208.17 254.933C206.735 256.457 205.745 264.54 212.777 266.939C209.504 268.222 207.806 277.045 220.206 278.463C218.828 286.644 221.573 291.341 238.358 289.185C235.305 296.917 253.757 292.477 253.757 292.477L258.794 285.883Z" fill="#B5E2FF"/>
<path d="M255.004 289.043C255.004 289.043 233.628 268.913 214.594 262" stroke="#94BAD1" stroke-width="1.5946" stroke-miterlimit="10" stroke-linecap="round" stroke-linejoin="round"/>
<path d="M218.838 258.972C218.838 258.972 219.336 262.342 221.572 265.022" stroke="#94BAD1" stroke-width="1.5946" stroke-miterlimit="10" stroke-linecap="round" stroke-linejoin="round"/>
<path d="M227.602 268.28C227.602 268.28 221.223 267.697 217.383 270.246" stroke="#94BAD1" stroke-width="1.5946" stroke-miterlimit="10" stroke-linecap="round" stroke-linejoin="round"/>
<path d="M245.51 272.308C245.51 272.308 244.692 277.633 247.139 281.785" stroke="#94BAD1" stroke-width="1.5946" stroke-miterlimit="10" stroke-linecap="round" stroke-linejoin="round"/>
<path d="M239.475 276.022C239.475 276.022 228.294 274.803 224.051 278.466" stroke="#94BAD1" stroke-width="1.5946" stroke-miterlimit="10" stroke-linecap="round" stroke-linejoin="round"/>
<path d="M230.647 262.729C230.647 262.729 230.112 266.967 232.378 271.206" stroke="#94BAD1" stroke-width="1.5946" stroke-miterlimit="10" stroke-linecap="round" stroke-linejoin="round"/>
<path d="M249.861 284.601C249.861 284.601 243.57 282.977 237.75 285.644" stroke="#94BAD1" stroke-width="1.5946" stroke-miterlimit="10" stroke-linecap="round" stroke-linejoin="round"/>
<path d="M255.954 294.432C255.954 294.432 273.586 295.991 275.751 279.643C282.188 278.451 285.644 275.461 286.837 270.361C287.397 267.972 286.93 265.848 285.544 264.317C293.122 260.927 296.357 252.063 293.342 248.358C292.021 246.735 284.14 244.681 280.831 251.333C279.993 247.919 271.473 245.067 268.423 257.169C260.497 254.719 255.478 256.817 255.389 273.74C248.131 269.688 250.085 288.566 250.085 288.566L255.954 294.432Z" fill="#B5E2FF"/>
<path d="M255.004 289.044C255.004 289.044 276.112 271.742 285.488 253.791" stroke="#94BAD1" stroke-width="1.5946" stroke-miterlimit="10" stroke-linecap="round" stroke-linejoin="round"/>
<path d="M287.928 258.398C287.928 258.398 284.521 258.446 281.568 260.307" stroke="#94BAD1" stroke-width="1.5946" stroke-miterlimit="10" stroke-linecap="round" stroke-linejoin="round"/>
<path d="M277.539 265.852C277.539 265.852 278.962 259.607 276.945 255.462" stroke="#94BAD1" stroke-width="1.5946" stroke-miterlimit="10" stroke-linecap="round" stroke-linejoin="round"/>
<path d="M271.174 283.068C271.174 283.068 266.004 281.551 261.564 283.426" stroke="#94BAD1" stroke-width="1.5946" stroke-miterlimit="10" stroke-linecap="round" stroke-linejoin="round"/>
<path d="M268.292 276.594C268.292 276.594 270.982 265.674 267.914 260.982" stroke="#94BAD1" stroke-width="1.5946" stroke-miterlimit="10" stroke-linecap="round" stroke-linejoin="round"/>
<path d="M282.637 269.606C282.637 269.606 278.507 268.514 274.006 270.199" stroke="#94BAD1" stroke-width="1.5946" stroke-miterlimit="10" stroke-linecap="round" stroke-linejoin="round"/>
<path d="M119.512 290.801C119.512 290.801 132.297 278.56 121.42 266.164C124.764 260.534 124.79 255.965 121.738 251.708C120.308 249.713 118.402 248.666 116.337 248.701C118.777 240.766 114.237 232.495 109.463 232.322C107.372 232.247 100.637 236.825 103.463 243.696C100.342 242.077 92.5841 246.611 99.6827 256.877C92.6194 261.228 90.8928 266.386 103.569 277.598C95.7393 280.392 111.233 291.354 111.233 291.354L119.512 290.801Z" fill="#B5E2FF"/>
<path d="M115.198 290.883C115.198 290.883 115.713 260.687 108.379 241.811" stroke="#94BAD1" stroke-width="1.5946" stroke-miterlimit="10" stroke-linecap="round" stroke-linejoin="round"/>
<path d="M113.452 243.01C113.452 243.01 111.244 245.604 110.701 249.052" stroke="#94BAD1" stroke-width="1.5946" stroke-miterlimit="10" stroke-linecap="round" stroke-linejoin="round"/>
<path d="M112.218 255.736C112.218 255.736 108.455 250.552 104.008 249.341" stroke="#94BAD1" stroke-width="1.5946" stroke-miterlimit="10" stroke-linecap="round" stroke-linejoin="round"/>
<path d="M114.212 269.767C114.212 269.767 107.765 260.551 102.215 259.771" stroke="#94BAD1" stroke-width="1.5946" stroke-miterlimit="10" stroke-linecap="round" stroke-linejoin="round"/>
<path d="M118.402 254.372C118.402 254.372 114.86 256.76 113.164 261.257" stroke="#94BAD1" stroke-width="1.5946" stroke-miterlimit="10" stroke-linecap="round" stroke-linejoin="round"/>
<path d="M124.195 270.244C124.195 270.244 116.665 270.632 114.764 276.591" stroke="#94BAD1" stroke-width="1.5946" stroke-miterlimit="10" stroke-linecap="round" stroke-linejoin="round"/>
<path d="M259.315 290.801C259.315 290.801 272.099 278.56 261.223 266.164C264.566 260.534 264.592 255.965 261.54 251.708C260.11 249.713 258.205 248.666 256.14 248.701C258.579 240.766 254.04 232.495 249.266 232.322C247.175 232.247 240.439 236.825 243.266 243.696C240.144 242.077 232.387 246.611 239.485 256.877C232.422 261.228 230.696 266.386 243.372 277.598C235.542 280.392 251.036 291.354 251.036 291.354L259.315 290.801Z" fill="#B5E2FF"/>
<path d="M255.001 290.883C255.001 290.883 255.515 260.687 248.182 241.811" stroke="#94BAD1" stroke-width="1.5946" stroke-miterlimit="10" stroke-linecap="round" stroke-linejoin="round"/>
<path d="M253.255 243.01C253.255 243.01 251.047 245.604 250.504 249.052" stroke="#94BAD1" stroke-width="1.5946" stroke-miterlimit="10" stroke-linecap="round" stroke-linejoin="round"/>
<path d="M252.02 255.736C252.02 255.736 248.257 250.552 243.811 249.341" stroke="#94BAD1" stroke-width="1.5946" stroke-miterlimit="10" stroke-linecap="round" stroke-linejoin="round"/>
<path d="M254.014 269.767C254.014 269.767 247.568 260.551 242.018 259.771" stroke="#94BAD1" stroke-width="1.5946" stroke-miterlimit="10" stroke-linecap="round" stroke-linejoin="round"/>
<path d="M258.205 254.372C258.205 254.372 254.663 256.76 252.967 261.257" stroke="#94BAD1" stroke-width="1.5946" stroke-miterlimit="10" stroke-linecap="round" stroke-linejoin="round"/>
<path d="M263.998 270.244C263.998 270.244 256.468 270.632 254.566 276.591" stroke="#94BAD1" stroke-width="1.5946" stroke-miterlimit="10" stroke-linecap="round" stroke-linejoin="round"/>
</g>
<path d="M304.516 287.261H49.3477V290.952H304.516V287.261Z" fill="#BDD5F0"/>
<path d="M158.754 176.112L169.35 155.843L179.938 160.475L180.53 162.126L179.322 161.613L170.311 178.266L160.623 176.461L159.671 177.66L158.754 176.112Z" fill="#9EB0FF"/>
<path d="M159.672 177.66L171.008 179.657L180.531 162.126L170.147 157.718L159.672 177.66Z" fill="#6782FF"/>
<path opacity="0.7" d="M129.049 313.078C148.886 313.078 164.966 309.48 164.966 305.043C164.966 300.605 148.886 297.008 129.049 297.008C109.213 297.008 93.1328 300.605 93.1328 305.043C93.1328 309.48 109.213 313.078 129.049 313.078Z" fill="#BDD5F0"/>
<path d="M119.124 289.992L118.272 294.828L113.762 293.924L114.604 288.482L119.124 289.992Z" fill="#E3A5A2"/>
<path d="M121.696 301.31C122.812 300.967 123.175 299.561 122.335 298.751C122.2 298.621 122.057 298.487 121.906 298.352C120.105 296.738 119.434 293.463 119.489 293.09C119.545 292.704 119.29 292.344 118.912 292.251L113.826 291.26C113.826 291.26 112.898 291.066 112.645 292.311C112.375 293.635 111.251 296.301 113.043 297.126C115.838 298.414 114.733 302.026 118.299 301.917C119.524 301.88 120.725 301.608 121.696 301.31Z" fill="#752741"/>
<path d="M123.581 299.3C122.332 298.533 119.968 297.622 117.488 299.519C116.976 299.91 116.706 300.545 116.726 301.189C116.739 301.618 117.097 301.955 117.526 301.941L123.804 301.749C124.218 301.737 124.542 301.391 124.53 300.978C124.508 300.295 124.162 299.657 123.581 299.3Z" fill="#752741"/>
<path d="M138.373 212.435C137.726 210.38 118.767 214.091 113.761 211.624C112.328 221.006 114.047 230.493 116.382 243.215C117.588 250.863 115.85 257.75 114.803 265.437C113.886 272.116 113.264 283.381 112.846 290.951C112.31 293.361 117.673 294.257 119.488 293.089C121.793 286.744 123.684 278.493 125.825 272.067C128.288 264.682 130.693 255.057 133.181 247.7C135.915 239.617 139.681 225.263 138.373 212.435Z" fill="#355679"/>
<path d="M140.274 304.47C139.244 303.989 137.579 302.208 137.555 301.74C137.505 300.756 137.339 298.909 137.312 298.447C137.275 297.835 136.924 297.835 136.312 297.793C135.155 297.714 132.832 297.796 131.398 298.164C130.916 298.288 130.863 298.579 130.875 299.077C130.924 301.024 130.619 302.937 130.699 303.694C130.767 304.337 131.147 304.693 131.821 304.93C132.339 305.112 133.026 305.952 133.536 306.681C134.126 307.525 134.704 308.025 135.384 308.26C137.281 309.217 139.065 309.27 141.231 308.785C143.013 308.386 143.309 307.83 143.504 306.989C143.503 306.982 143.499 306.977 143.497 306.971C143.583 306.088 141.921 305.241 140.274 304.47Z" fill="#AB4467"/>
<path d="M137.495 307.934C135.815 307.694 135.755 306.579 134.933 305.65C134.313 304.948 132.926 304.227 132.4 303.445C131.513 302.129 132.489 298.779 132.346 297.979C132.007 298.031 131.681 298.09 131.396 298.163C130.914 298.287 130.861 298.578 130.874 299.076C130.922 301.022 130.617 302.936 130.697 303.693C130.765 304.336 131.145 304.692 131.819 304.929C132.337 305.111 133.024 305.951 133.534 306.68C134.124 307.524 134.702 308.024 135.383 308.259C137.279 309.216 139.063 309.269 141.229 308.784C142.371 308.529 142.9 308.207 143.186 307.788C141.498 308.527 139.254 308.185 137.495 307.934Z" fill="#873651"/>
<path d="M137.716 298.819C137.428 286.02 138.173 256.681 138.36 249.188C138.657 237.335 134.546 217.914 132.657 211.623C124.839 214.125 119.755 213.462 111.888 215.939C111.09 225.098 124.544 246.494 126.331 254.933C126.714 256.738 125.494 267.007 127.172 275.32C128.564 282.214 129.809 293.586 130.57 298.954C130.989 300.068 135.62 300.35 137.716 298.819Z" fill="#4975A6"/>
<path d="M129.051 257.315C128.696 249.263 123.652 242.605 120.197 233.725C117.668 227.222 117.849 223.024 117.808 216.217C116.446 216.508 113.421 215.456 111.888 215.939C111.09 225.098 124.544 246.495 126.331 254.933C126.714 256.739 125.494 267.007 127.172 275.32C128.564 282.214 129.809 293.587 130.57 298.954C130.737 299.401 131.586 299.709 132.673 299.825C131.34 290.95 129.603 269.79 129.051 257.315Z" fill="#3B5F87"/>
<path d="M139.579 173.316L136.761 190.624L135.797 187.797L151.116 206.749C152.107 207.975 151.917 209.774 150.69 210.765C149.53 211.703 147.858 211.584 146.841 210.53L146.829 210.516L129.973 192.94C129.366 192.306 129.051 191.5 129.026 190.687L129.009 190.112L128.487 172.584C128.395 169.502 130.819 166.928 133.902 166.837C136.984 166.745 139.558 169.169 139.65 172.252C139.659 172.604 139.632 172.98 139.579 173.316Z" fill="#E3A5A2"/>
<path d="M138.984 184.162L141.209 171.236C141.513 169.158 142.638 162.687 139.383 160.027L135.767 161.366L127.678 165.985L127.848 183.699C131.565 183.909 135.295 184.176 138.984 184.162Z" fill="#9343D6"/>
<path d="M153.343 210.879C153.476 210.943 153.501 210.963 153.543 210.989C153.588 211.017 153.625 211.042 153.65 211.061C153.704 211.102 153.772 211.151 153.812 211.187C153.904 211.265 153.991 211.344 154.06 211.416C154.213 211.566 154.331 211.706 154.447 211.849C154.676 212.133 154.858 212.41 155.028 212.687C155.362 213.241 155.632 213.792 155.871 214.342C156.345 215.442 156.696 216.543 157.006 217.644C157.153 218.163 156.85 218.702 156.331 218.849C155.883 218.975 155.419 218.766 155.207 218.373L155.2 218.359C154.687 217.407 154.141 216.48 153.536 215.649C153.233 215.234 152.916 214.844 152.591 214.51C152.43 214.345 152.265 214.191 152.111 214.075C152.036 214.018 151.958 213.962 151.899 213.934C151.865 213.913 151.844 213.907 151.825 213.902C151.811 213.895 151.817 213.91 151.817 213.91C151.813 213.909 151.821 213.917 151.836 213.928C151.847 213.936 151.843 213.939 151.944 213.988C151.085 213.602 150.702 212.593 151.088 211.734C151.476 210.876 152.485 210.493 153.343 210.879Z" fill="#E3A5A2"/>
<path d="M153.776 208.478C153.948 208.545 153.957 208.559 154.015 208.588C154.072 208.618 154.103 208.639 154.135 208.659C154.203 208.702 154.27 208.747 154.315 208.783C154.423 208.862 154.508 208.937 154.587 209.009C154.746 209.154 154.881 209.294 154.998 209.432C155.244 209.71 155.436 209.98 155.623 210.252C155.986 210.792 156.28 211.332 156.557 211.871C157.095 212.952 157.529 214.037 157.925 215.126C158.109 215.633 157.848 216.193 157.341 216.377C156.902 216.537 156.423 216.361 156.183 215.982L156.176 215.972C155.585 215.038 154.964 214.131 154.299 213.308C153.964 212.903 153.621 212.513 153.271 212.182C153.097 212.022 152.921 211.865 152.759 211.754C152.678 211.694 152.6 211.649 152.539 211.619C152.507 211.603 152.48 211.593 152.47 211.596C152.458 211.591 152.464 211.601 152.47 211.609C152.47 211.609 152.473 211.614 152.498 211.629C152.525 211.643 152.503 211.64 152.642 211.694C151.754 211.381 151.288 210.408 151.602 209.519C151.914 208.631 152.888 208.165 153.776 208.478Z" fill="#E3A5A2"/>
<path d="M151.424 211.101C151.574 211.232 151.62 211.29 151.702 211.376L151.909 211.609C152.036 211.763 152.16 211.915 152.272 212.069C152.502 212.375 152.704 212.685 152.898 212.996C153.281 213.621 153.603 214.259 153.892 214.904C154.18 215.549 154.42 216.204 154.637 216.861C154.851 217.519 155.025 218.183 155.183 218.846C155.308 219.369 154.985 219.894 154.461 220.019C153.999 220.13 153.534 219.89 153.346 219.471L153.336 219.447C153.078 218.872 152.809 218.307 152.511 217.763C152.212 217.221 151.896 216.693 151.55 216.197C151.204 215.701 150.839 215.227 150.448 214.8C150.252 214.589 150.053 214.382 149.85 214.2C149.75 214.106 149.647 214.022 149.548 213.941C149.5 213.906 149.449 213.861 149.404 213.833C149.368 213.808 149.294 213.755 149.317 213.782C148.577 213.2 148.449 212.129 149.031 211.389C149.612 210.647 150.684 210.519 151.424 211.101Z" fill="#E3A5A2"/>
<path d="M149.824 211.431C150.23 212.101 150.559 212.712 150.899 213.358C151.232 213.997 151.553 214.639 151.858 215.288C152.469 216.584 153.029 217.9 153.536 219.232C153.727 219.734 153.474 220.298 152.971 220.489C152.522 220.66 152.026 220.477 151.788 220.079L151.784 220.073C151.08 218.895 150.333 217.747 149.544 216.634C149.151 216.076 148.745 215.53 148.332 214.992C147.923 214.463 147.484 213.912 147.076 213.45C146.451 212.741 146.519 211.66 147.227 211.034C147.936 210.409 149.018 210.477 149.643 211.185C149.71 211.26 149.773 211.349 149.824 211.431Z" fill="#E3A5A2"/>
<path d="M145.454 210.968C144.811 209.006 147.184 205.665 147.184 205.665C150.889 205.515 152.73 206.719 153.743 207.728L154.602 212.449C154.602 212.449 152.842 213.756 152.838 213.759C152.072 214.328 151.192 214.861 150.215 214.924C148.886 215.009 146.062 212.819 145.454 210.968Z" fill="#E3A5A2"/>
<path d="M155.362 210.954C155.159 210.661 154.814 210.26 154.484 210.005C154.143 209.731 153.773 209.539 153.401 209.43C153.028 209.323 152.661 209.273 152.276 209.323C151.898 209.344 151.504 209.474 151.116 209.608L151.079 209.621C150.183 209.93 149.207 209.455 148.897 208.56C148.588 207.664 149.063 206.688 149.959 206.378C150.067 206.341 150.186 206.314 150.295 206.299C151.002 206.207 151.723 206.152 152.466 206.268C153.201 206.353 153.933 206.616 154.57 206.981C155.211 207.348 155.758 207.832 156.19 208.367C156.403 208.638 156.599 208.916 156.766 209.209C156.941 209.511 157.068 209.774 157.217 210.166C157.414 210.683 157.156 211.261 156.64 211.459C156.2 211.627 155.715 211.464 155.459 211.094L155.362 210.954Z" fill="#E3A5A2"/>
<path d="M142.547 213.946C141.815 208.883 141.322 202.71 141.413 195.763C141.656 177.234 140.449 163.823 140.449 163.823C140.641 160.991 139.414 158.244 133.794 157.9L123.574 158.33C120.676 158.338 117.191 158.609 115.399 162.399C115.088 163.056 114.938 163.777 114.891 164.503C114.596 169.038 113.25 189.016 110.617 218.07C118.118 220.332 133.935 223.989 142.547 213.946Z" fill="#BB6FFC"/>
<path d="M140.315 195.032C134.809 190.384 129.4 185.585 125.399 179.539C123.342 176.431 122.267 172.406 119.824 169.605C118.299 167.856 116.177 167.768 114.593 168.906C114.454 170.924 114.272 173.485 114.047 176.537C114.177 176.747 114.431 177.164 114.792 177.739C121.479 185.367 127.678 195.032 140.315 195.032Z" fill="#9B51DB"/>
<path d="M117.384 162.991C118.073 160.562 119.757 159.135 123.65 158.327L123.574 158.331C120.676 158.338 117.191 158.61 115.399 162.4C115.088 163.056 114.938 163.777 114.891 164.503C114.596 169.039 113.25 189.017 110.617 218.07C112.343 218.57 114.89 219.325 117.81 219.839C117.97 217.954 116.784 165.104 117.384 162.991Z" fill="#9B51DB"/>
<path d="M126.484 157.959C126.484 157.959 126.041 160.702 129.211 161.862C132.381 163.021 133.813 160.64 133.813 160.64C133.813 160.64 134.289 156.132 137.204 152.323C137.052 150.076 131.951 147.719 129.49 149.744C128.791 153.748 126.484 157.959 126.484 157.959Z" fill="#E3A5A2"/>
<path d="M147.668 135.743C147.668 135.743 151.092 141.893 143.256 150.105L141.924 149.187L147.668 135.743Z" fill="#4B0D03"/>
<path d="M146.085 149.694C144.593 151.638 142.505 152.541 141.421 151.709C140.337 150.878 140.668 148.627 142.159 146.683C143.651 144.739 145.739 143.836 146.823 144.668C147.907 145.499 147.576 147.749 146.085 149.694Z" fill="#FFB9B6"/>
<path d="M130.086 130.661C133.284 128.78 144.792 130.453 146.312 133.709C148.139 137.622 146.732 143.328 144.304 147.359C141.009 152.83 136.935 159.137 132.83 157.822C126.723 155.866 123.348 146.656 125.509 140.433C126.241 138.322 128.092 131.833 130.086 130.661Z" fill="#FFB9B6"/>
<path d="M130.483 153.645C128.93 145.182 132.306 137.771 135.043 129.881C132.945 129.826 131.099 130.064 130.086 130.66C128.092 131.832 126.241 138.322 125.508 140.432C123.525 146.141 126.206 154.363 131.379 157.19C130.99 156.007 130.695 154.803 130.483 153.645Z" fill="#E3A5A2"/>
<path d="M132.055 129.153C127.964 126.294 123.6 130.975 122.626 134.094C119.176 145.148 123.943 149.638 125.262 148.96C125.262 148.96 125.035 146.946 125.128 142.002C125.128 142.002 127.88 149.094 131.452 137.382C131.27 137.977 141.829 143.105 146.907 141.173C152.727 138.959 149.314 123.638 132.055 129.153Z" fill="#4B0D03"/>
<path d="M123.893 140.991C123.67 143.432 124.591 145.511 125.952 145.635C127.312 145.759 128.597 143.882 128.82 141.442C129.043 139.001 128.121 136.922 126.76 136.798C125.4 136.674 124.116 138.551 123.893 140.991Z" fill="#E3A5A2"/>
<path d="M129.298 170.655L143.287 192.439L137.643 191.632L148.225 184.416L153.491 180.786L156.102 178.963C156.96 178.359 157.842 177.733 158.608 177.163L158.675 177.113C159.998 176.128 161.869 176.402 162.855 177.725C163.787 178.977 163.583 180.728 162.439 181.746C161.553 182.531 160.743 183.209 159.908 183.909L157.422 185.972L152.447 190.052L142.47 198.15C140.865 199.452 138.53 199.252 137.168 197.726L136.826 197.341L119.616 178.001C117.378 175.486 117.603 171.632 120.118 169.394C122.632 167.157 126.486 167.381 128.724 169.896C128.929 170.129 129.133 170.402 129.298 170.655Z" fill="#FFB9B6"/>
<path d="M161.804 171.197C161.731 171.496 161.658 171.923 161.687 172.268C161.707 172.627 161.787 172.957 161.927 173.243C162.073 173.528 162.23 173.776 162.463 173.991C162.672 174.21 162.944 174.396 163.211 174.571C164.119 175.166 164.372 176.386 163.776 177.293C163.181 178.201 161.961 178.455 161.054 177.859C160.802 177.694 160.601 177.481 160.454 177.24L160.371 177.102C160.053 176.576 159.767 176.031 159.581 175.423C159.377 174.831 159.303 174.18 159.316 173.566C159.331 172.945 159.473 172.349 159.693 171.817C159.923 171.272 160.192 170.836 160.608 170.363C160.871 170.063 161.326 170.034 161.625 170.296C161.834 170.479 161.911 170.755 161.85 171.007L161.804 171.197Z" fill="#FFB9B6"/>
<path d="M159.819 175.275C159.444 176.135 159.058 177.109 159.159 178.357C159.233 179.27 161.061 181.314 162.088 181.491C164.57 181.919 166.627 180.883 168.031 179.876C169.162 179.065 170.378 177.659 170.975 177.122C171.258 176.868 170.908 176.486 170.6 176.264L165.907 172.455C164.62 173.685 159.819 175.275 159.819 175.275Z" fill="#FFB9B6"/>
<path d="M164.871 173.143C164.807 173.196 164.833 173.177 164.825 173.184C164.821 173.191 164.832 173.18 164.837 173.176C164.849 173.167 164.864 173.155 164.884 173.133C164.919 173.1 164.96 173.054 165.002 173.007C165.085 172.911 165.172 172.804 165.256 172.688C165.428 172.46 165.593 172.205 165.756 171.948C166.08 171.427 166.381 170.87 166.674 170.306C167.251 169.17 167.775 167.986 168.27 166.788L168.272 166.783C168.444 166.369 168.92 166.171 169.334 166.344C169.721 166.504 169.919 166.933 169.803 167.326C169.424 168.6 169.015 169.869 168.531 171.132C168.283 171.763 168.023 172.393 167.718 173.023C167.562 173.338 167.402 173.653 167.212 173.972C167.119 174.131 167.016 174.292 166.902 174.458C166.843 174.541 166.784 174.624 166.711 174.714C166.679 174.756 166.638 174.804 166.593 174.854L166.519 174.934C166.482 174.97 166.479 174.979 166.383 175.059C165.854 175.477 165.087 175.386 164.669 174.857C164.251 174.328 164.342 173.56 164.871 173.143Z" fill="#FFB9B6"/>
<path d="M166.16 174.047C166.08 174.072 166.079 174.075 166.079 174.075C166.073 174.08 166.067 174.085 166.076 174.08C166.087 174.075 166.09 174.08 166.11 174.068C166.145 174.049 166.183 174.033 166.229 174C166.317 173.948 166.419 173.865 166.517 173.779C166.717 173.608 166.914 173.38 167.104 173.144C167.483 172.662 167.823 172.102 168.134 171.519C168.437 170.927 168.717 170.312 168.967 169.677C169.221 169.043 169.442 168.391 169.66 167.735L169.666 167.719C169.808 167.293 170.267 167.063 170.693 167.205C171.091 167.338 171.317 167.751 171.23 168.151C170.918 169.564 170.541 170.976 169.98 172.37C169.691 173.065 169.364 173.758 168.932 174.435C168.711 174.772 168.477 175.109 168.172 175.433C168.021 175.596 167.864 175.755 167.666 175.912C167.575 175.99 167.463 176.068 167.349 176.144C167.295 176.181 167.217 176.222 167.152 176.259C167.121 176.277 167.075 176.299 167.028 176.32C166.985 176.339 166.947 176.359 166.824 176.397C166.175 176.58 165.501 176.203 165.318 175.554C165.133 174.904 165.511 174.23 166.16 174.047Z" fill="#FFB9B6"/>
<path d="M167.78 175.309C167.658 175.381 167.698 175.362 167.673 175.379C167.656 175.396 167.668 175.385 167.668 175.385C167.668 175.385 167.682 175.379 167.699 175.363C167.727 175.344 167.769 175.295 167.808 175.255C167.889 175.163 167.977 175.054 168.062 174.929C168.234 174.688 168.395 174.401 168.552 174.111C168.862 173.521 169.127 172.875 169.381 172.223C169.874 170.906 170.278 169.527 170.641 168.134L170.642 168.128C170.755 167.693 171.199 167.433 171.633 167.546C172.042 167.653 172.296 168.054 172.231 168.463C171.992 169.925 171.71 171.386 171.314 172.849C171.106 173.58 170.884 174.311 170.583 175.047C170.427 175.416 170.265 175.784 170.049 176.161C169.946 176.348 169.825 176.539 169.684 176.735C169.606 176.836 169.537 176.933 169.434 177.042C169.39 177.093 169.338 177.148 169.269 177.21C169.233 177.242 169.215 177.262 169.16 177.305C169.099 177.349 169.104 177.359 168.942 177.454C168.35 177.776 167.609 177.556 167.288 176.964C166.968 176.371 167.187 175.63 167.78 175.309Z" fill="#FFB9B6"/>
<path d="M167.38 177.416C167.332 177.432 167.442 177.404 167.492 177.385C167.553 177.368 167.627 177.33 167.695 177.305C167.836 177.238 167.981 177.167 168.123 177.075C168.411 176.902 168.685 176.675 168.95 176.431C169.476 175.932 169.931 175.311 170.312 174.63C170.71 173.96 171.006 173.21 171.286 172.453L171.639 171.28L171.923 170.077L171.935 170.027C172.038 169.591 172.475 169.321 172.911 169.423C173.325 169.52 173.589 169.922 173.527 170.335L173.325 171.655C173.239 172.095 173.136 172.532 173.04 172.972C172.797 173.844 172.528 174.719 172.119 175.563C171.727 176.409 171.23 177.235 170.569 177.975C170.234 178.341 169.873 178.695 169.45 179.002C169.244 179.159 169.017 179.301 168.781 179.436C168.654 179.5 168.539 179.566 168.4 179.624C168.252 179.686 168.161 179.733 167.906 179.801C167.247 179.946 166.596 179.53 166.451 178.872C166.305 178.212 166.721 177.561 167.38 177.416Z" fill="#FFB9B6"/>
<path d="M129.437 189.483C132.181 187.379 134.93 185.074 137.947 183.304L129.745 169.224C129.745 169.224 127.938 157.808 124.237 158.617C120.536 159.427 118.63 160.96 118.63 160.96C118.63 160.96 109.503 168.26 128.022 190.581C128.495 190.216 128.964 189.847 129.437 189.483Z" fill="#BB6FFC"/>
<path d="M124.071 179.844C122.146 176.832 120.519 173.558 119.581 170.097C118.811 167.253 118.004 163.031 120.076 159.553C116.188 161.187 111.126 170.215 128.024 190.581C128.496 190.215 128.965 189.846 129.438 189.483C129.902 189.128 130.366 188.766 130.831 188.402C128.336 185.747 126.035 182.916 124.071 179.844Z" fill="#9B51DB"/>
<path d="M130.383 170.319C131.176 171.26 131.883 172.251 132.561 173.259C133.245 174.264 133.879 175.298 134.498 176.34C135.113 177.385 135.699 178.446 136.241 179.534C136.785 180.62 137.292 181.727 137.705 182.889C136.897 181.957 136.185 180.969 135.508 179.96C134.83 178.952 134.196 177.919 133.589 176.869C132.988 175.816 132.402 174.755 131.865 173.665C131.324 172.577 130.81 171.473 130.383 170.319Z" fill="#9343D6"/>
<path d="M126.35 188.07C124.878 186.789 123.58 185.323 122.38 183.785C121.186 182.241 120.087 180.615 119.162 178.883C118.252 177.147 117.432 175.348 116.915 173.442C116.405 171.543 116.138 169.555 116.352 167.614C116.568 169.556 117.048 171.401 117.687 173.195C118.344 174.984 119.184 176.7 120.089 178.38C120.329 178.792 120.553 179.215 120.785 179.634L121.527 180.862C122.019 181.684 122.537 182.492 123.065 183.295C124.124 184.898 125.217 186.487 126.35 188.07Z" fill="#9343D6"/>
<path d="M155.693 132.574L159.592 115.611L182.634 120.738L155.693 132.574Z" fill="#6072DB"/>
<path d="M222.56 123.099H160.057C156.374 123.099 153.389 120.113 153.389 116.43V60.022C153.389 56.3393 156.374 53.3535 160.057 53.3535H222.56C226.242 53.3535 229.228 56.3393 229.228 60.022V116.43C229.228 120.113 226.242 123.099 222.56 123.099Z" fill="#6072DB"/>
<path d="M215.055 86.8358L215.055 84.2802C215.149 83.1135 214.228 82.115 213.058 82.115H189.421L184.321 79.315C183.945 79.1088 183.523 79 183.093 79H169.126C168.204 79 167.457 79.7471 167.457 80.6687V86.8358H215.055Z" fill="white"/>
<path d="M210.044 99.1107H173.886C173.356 99.1107 172.887 98.6806 172.838 98.1474L171.571 84.3549C171.516 83.7455 171.932 83.249 172.502 83.249H211.427C211.997 83.249 212.414 83.7455 212.358 84.3549L211.091 98.1474C211.042 98.6806 210.573 99.1107 210.044 99.1107Z" fill="#6072DB"/>
<path d="M211.372 101.138H172.658C172.091 101.138 171.589 100.677 171.537 100.107L170.181 85.3398C170.121 84.6873 170.567 84.1562 171.178 84.1562H212.852C213.463 84.1562 213.909 84.688 213.849 85.3398L212.493 100.107C212.44 100.677 211.938 101.138 211.372 101.138Z" fill="#6072DB"/>
<path d="M212.442 103.026H171.588C170.989 103.026 170.46 102.54 170.404 101.938L168.973 86.3537C168.909 85.6652 169.38 85.1045 170.024 85.1045H214.005C214.649 85.1045 215.12 85.6652 215.057 86.3537L213.625 101.938C213.57 102.54 213.041 103.026 212.442 103.026Z" fill="#6072DB"/>
<path d="M196.884 55.2305L179.594 72.3945L202.987 95.9605L220.278 78.7965L196.884 55.2305Z" fill="white"/>
<path d="M197.064 59.3355L183.697 72.6045L184.433 73.3457L197.8 60.0767L197.064 59.3355Z" fill="#6072DB"/>
<path d="M198.65 60.9331L185.283 74.2021L186.019 74.9434L199.386 61.6744L198.65 60.9331Z" fill="#6072DB"/>
<path d="M195.753 66.9761L186.867 75.7969L187.603 76.5381L196.489 67.7173L195.753 66.9761Z" fill="#6072DB"/>
<path d="M201.818 64.1255L188.451 77.3945L189.187 78.1358L202.554 64.8668L201.818 64.1255Z" fill="#6072DB"/>
<path d="M203.402 65.7222L190.035 78.9912L190.771 79.7325L204.138 66.4634L203.402 65.7222Z" fill="#6072DB"/>
<path d="M200.279 71.992L191.621 80.5869L192.357 81.3282L201.015 72.7332L200.279 71.992Z" fill="#6072DB"/>
<path d="M206.574 68.9155L193.207 82.1846L193.943 82.9258L207.31 69.6568L206.574 68.9155Z" fill="#6072DB"/>
<path d="M203.451 75.1863L194.793 83.7812L195.529 84.5225L204.187 75.9276L203.451 75.1863Z" fill="#6072DB"/>
<path d="M209.742 72.1079L196.375 85.377L197.111 86.1182L210.478 72.8492L209.742 72.1079Z" fill="#6072DB"/>
<path d="M211.326 73.7046L197.959 86.9736L198.695 87.7149L212.062 74.4459L211.326 73.7046Z" fill="#6072DB"/>
<path d="M208.638 79.544L199.545 88.5703L200.281 89.3116L209.374 80.2853L208.638 79.544Z" fill="#6072DB"/>
<path d="M214.498 76.898L201.131 90.167L201.867 90.9082L215.234 77.6392L214.498 76.898Z" fill="#6072DB"/>
<path d="M211.81 82.7364L202.717 91.7627L203.453 92.5039L212.546 83.4777L211.81 82.7364Z" fill="#6072DB"/>
<path d="M213.111 116.996H169.408C168.331 116.996 167.457 116.123 167.457 115.046V85.0879H215.061V115.046C215.062 116.123 214.188 116.996 213.111 116.996Z" fill="white"/>
<path d="M100.001 191.761H78.8622C77.3827 191.761 76.1836 190.562 76.1836 189.082V168.997C76.1836 167.517 77.3827 166.318 78.8622 166.318H100.001C101.481 166.318 102.68 167.517 102.68 168.997V189.082C102.68 190.562 101.481 191.761 100.001 191.761Z" fill="#DB749B"/>
<path d="M98.7259 175.285C98.7259 172.847 96.6455 170.871 94.0792 170.871C91.5129 170.871 89.4318 172.847 89.4318 175.285C89.4318 172.847 87.3513 170.871 84.7844 170.871C82.2181 170.871 80.1377 172.847 80.1377 175.285C80.1377 175.285 79.7048 180.765 89.4318 187.21C99.1588 180.765 98.7259 175.285 98.7259 175.285Z" fill="white"/>
<path d="M194.7 145.448H183.5C182.716 145.448 182.08 144.812 182.08 144.028V133.386C182.08 132.602 182.716 131.967 183.5 131.967H194.7C195.484 131.967 196.12 132.602 196.12 133.386V144.029C196.12 144.812 195.484 145.448 194.7 145.448Z" fill="#DB749B"/>
<path d="M194.023 136.718C194.023 135.426 192.921 134.379 191.561 134.379C190.201 134.379 189.098 135.426 189.098 136.718C189.098 135.426 187.996 134.379 186.636 134.379C185.276 134.379 184.173 135.426 184.173 136.718C184.173 136.718 183.944 139.622 189.098 143.037C194.253 139.622 194.023 136.718 194.023 136.718Z" fill="white"/>
<path d="M196.167 243.215H175.028C173.549 243.215 172.35 242.016 172.35 240.537V220.452C172.35 218.973 173.549 217.773 175.028 217.773H196.167C197.647 217.773 198.846 218.973 198.846 220.452V240.537C198.846 242.016 197.647 243.215 196.167 243.215Z" fill="#3EAFDB"/>
<path d="M189.842 237.413H193.634C194.166 237.413 194.598 236.982 194.598 236.45V229.11C194.598 228.578 194.166 228.146 193.634 228.146H189.842C189.31 228.146 188.879 228.578 188.879 229.11V236.45C188.879 236.982 189.31 237.413 189.842 237.413Z" fill="white"/>
<path d="M177.63 227.871H181.693C182.127 227.871 182.479 227.512 182.479 227.069V226.359C182.48 226.325 182.482 226.292 182.483 226.259L182.602 224.74C182.653 224.083 183.19 223.577 183.835 223.577C184.518 223.577 185.071 224.143 185.071 224.841V226.292C185.071 226.535 185.139 226.772 185.268 226.976L185.611 227.556C185.783 227.849 186.011 228.102 186.28 228.304C186.719 228.63 187.357 229.109 187.357 229.109C187.616 229.308 187.768 229.619 187.768 229.95V234.397C187.768 234.729 187.615 235.041 187.354 235.24L186.554 235.849C186.376 235.983 186.161 236.057 185.94 236.057H179.18C178.973 236.057 178.767 235.991 178.595 235.871C177.948 235.418 177.907 234.875 178.006 234.472C178.093 234.118 177.993 233.76 177.756 233.487C177.454 233.14 177.418 232.758 177.462 232.459C177.508 232.135 177.452 231.8 177.254 231.542C176.931 231.123 176.929 230.694 176.996 230.386C177.062 230.09 176.972 229.783 176.796 229.538C176.305 228.842 176.791 227.871 177.63 227.871Z" fill="white"/>
<path d="M238.05 145.063H252.411C253.416 145.063 254.23 144.248 254.23 143.243V129.598C254.23 128.593 253.415 127.778 252.411 127.778H238.05C237.045 127.778 236.23 128.593 236.23 129.598V143.243C236.23 144.249 237.045 145.063 238.05 145.063Z" fill="#3EAFDB"/>
<path d="M242.346 141.121H239.77C239.408 141.121 239.115 140.828 239.115 140.467V135.481C239.115 135.12 239.408 134.827 239.77 134.827H242.346C242.708 134.827 243.001 135.12 243.001 135.481V140.467C243.001 140.829 242.708 141.121 242.346 141.121Z" fill="white"/>
<path d="M250.645 134.641H247.885C247.59 134.641 247.351 134.396 247.351 134.095V133.613C247.35 133.591 247.349 133.567 247.348 133.545L247.268 132.513C247.233 132.067 246.868 131.723 246.43 131.723C245.966 131.723 245.59 132.107 245.59 132.581V133.567C245.59 133.732 245.543 133.893 245.456 134.032L245.223 134.426C245.106 134.624 244.952 134.797 244.768 134.934C244.47 135.155 244.037 135.481 244.037 135.481C243.862 135.616 243.758 135.828 243.758 136.052V139.073C243.758 139.299 243.862 139.51 244.039 139.645L244.582 140.059C244.703 140.151 244.849 140.2 244.999 140.2H249.592C249.733 140.2 249.873 140.156 249.989 140.074C250.429 139.766 250.457 139.397 250.39 139.123C250.331 138.883 250.399 138.639 250.56 138.454C250.765 138.217 250.789 137.959 250.76 137.756C250.728 137.535 250.766 137.308 250.901 137.133C251.12 136.847 251.122 136.556 251.076 136.347C251.032 136.146 251.092 135.938 251.212 135.772C251.545 135.299 251.214 134.641 250.645 134.641Z" fill="white"/>
<path d="M112.218 129.717H91.079C89.5995 129.717 88.4004 128.518 88.4004 127.038V106.953C88.4004 105.474 89.5995 104.274 91.079 104.274H112.218C113.697 104.274 114.896 105.474 114.896 106.953V127.038C114.896 128.518 113.697 129.717 112.218 129.717Z" fill="#FCBD55"/>
<path d="M109.724 114.515C111.317 119.524 108.004 125.31 101.646 125.31C95.2885 125.31 91.9751 119.524 93.5682 114.515C94.7108 110.923 98.21 108.68 101.646 108.68C105.083 108.68 108.582 110.923 109.724 114.515Z" fill="white"/>
<path d="M105.808 119.597C105.4 120.291 104.697 120.77 103.968 121.073C103.231 121.382 102.436 121.515 101.645 121.528C100.854 121.529 100.056 121.401 99.3149 121.097C98.5811 120.8 97.8707 120.319 97.4611 119.617C97.4089 119.527 97.4392 119.412 97.5289 119.359C97.5939 119.321 97.6723 119.326 97.7302 119.366L97.7394 119.372C98.322 119.772 98.9596 120.009 99.6199 120.174C100.282 120.331 100.962 120.408 101.646 120.416C102.33 120.423 103.014 120.35 103.68 120.2C104.346 120.04 104.99 119.801 105.574 119.392L105.582 119.387C105.654 119.337 105.752 119.355 105.802 119.426C105.839 119.479 105.839 119.546 105.808 119.597Z" fill="#FCBD55"/>
<path d="M106.101 115.523C106.101 116.035 105.772 116.451 105.366 116.451C104.96 116.451 104.631 116.035 104.631 115.523C104.631 115.01 104.96 114.595 105.366 114.595C105.772 114.595 106.101 115.01 106.101 115.523Z" fill="#FCBD55"/>
<path d="M98.6656 115.523C98.6656 116.035 98.3365 116.451 97.9305 116.451C97.5244 116.451 97.1953 116.035 97.1953 115.523C97.1953 115.01 97.5244 114.595 97.9305 114.595C98.3365 114.595 98.6656 115.01 98.6656 115.523Z" fill="#FCBD55"/>
<path d="M80.4102 236.517H63.5451C62.3651 236.517 61.4082 235.56 61.4082 234.38V218.356C61.4082 217.176 62.3651 216.219 63.5451 216.219H80.4102C81.5903 216.219 82.5472 217.176 82.5472 218.356V234.38C82.5472 235.56 81.5903 236.517 80.4102 236.517Z" fill="#FCBD55"/>
<path d="M78.4223 224.389C79.6935 228.385 77.0495 233.001 71.9777 233.001C66.9052 233.001 64.2619 228.385 65.5331 224.389C66.4447 221.523 69.2363 219.733 71.9777 219.733C74.7191 219.733 77.5114 221.522 78.4223 224.389Z" fill="white"/>
<path d="M75.2996 228.445C74.9741 228.998 74.4127 229.381 73.8315 229.622C73.2439 229.869 72.6091 229.975 71.9784 229.986C71.3478 229.987 70.7108 229.884 70.1191 229.642C69.5336 229.405 68.9673 229.021 68.6396 228.46C68.5979 228.388 68.6219 228.297 68.6933 228.255C68.7448 228.225 68.8077 228.229 68.8543 228.261L68.8613 228.266C69.3267 228.584 69.8352 228.774 70.3613 228.905C70.8888 229.03 71.4326 229.092 71.9777 229.098C73.0645 229.093 74.1761 228.918 75.1125 228.281L75.1188 228.277C75.1767 228.237 75.2551 228.253 75.2947 228.31C75.3236 228.352 75.3236 228.404 75.2996 228.445Z" fill="#FCBD55"/>
<path d="M75.5291 225.192C75.5291 225.601 75.2664 225.932 74.9423 225.932C74.6182 225.932 74.3555 225.601 74.3555 225.192C74.3555 224.783 74.6182 224.452 74.9423 224.452C75.2664 224.452 75.5291 224.784 75.5291 225.192Z" fill="#FCBD55"/>
<path d="M69.5975 225.192C69.5975 225.601 69.3348 225.932 69.0107 225.932C68.6865 225.932 68.4238 225.601 68.4238 225.192C68.4238 224.783 68.6865 224.452 69.0107 224.452C69.3348 224.452 69.5975 224.784 69.5975 225.192Z" fill="#FCBD55"/>
<path d="M172.279 179.353C172.822 179.819 173.363 180.273 173.901 180.717" stroke="#9A97F5" stroke-width="2" stroke-miterlimit="10"/>
<path d="M177.197 183.331C235.145 227.378 257.714 143.223 208.245 152.503C175.019 158.737 231.415 251.374 265.167 212.183C279.692 195.319 249.352 169.537 287.687 126.685" stroke="#9A97F5" stroke-width="2" stroke-miterlimit="10" stroke-dasharray="5.95 5.95"/>
<path d="M289.094 125.134C289.568 124.622 290.051 124.107 290.544 123.59" stroke="#9A97F5" stroke-width="2" stroke-miterlimit="10"/>
<path d="M297.336 141.8C308.749 141.8 318.001 132.549 318.001 121.136C318.001 109.723 308.749 100.472 297.336 100.472C285.924 100.472 276.672 109.723 276.672 121.136C276.672 132.549 285.924 141.8 297.336 141.8Z" fill="#6373DB"/>
<path d="M297.324 123.698L308.133 111.881C307.887 111.778 307.618 111.72 307.335 111.72H287.339C286.916 111.72 286.543 111.877 286.213 112.095L297.324 123.698Z" fill="white"/>
<path d="M309.285 113.121L302.713 120.304L309.424 127.093V113.81C309.424 113.565 309.362 113.339 309.285 113.121Z" fill="white"/>
<path d="M291.763 120.331L285.295 113.575C285.285 113.656 285.248 113.726 285.248 113.809V127.28L291.763 120.331Z" fill="white"/>
<path d="M301.573 121.549L297.348 126.165L292.932 121.552L285.527 129.448C285.882 130.097 286.547 130.554 287.338 130.554H307.334C308.187 130.554 308.916 130.039 309.24 129.306L301.573 121.549Z" fill="white"/>
<path d="M528.348 51.144C527.692 51.144 527.092 50.988 526.548 50.676C526.012 50.356 525.604 49.904 525.324 49.32L526.212 48.588C526.692 49.532 527.4 50.004 528.336 50.004C528.832 50.004 529.228 49.876 529.524 49.62C529.82 49.364 529.968 49.044 529.968 48.66C529.968 48.188 529.66 47.776 529.044 47.424C528.932 47.368 528.628 47.224 528.132 46.992C527.724 46.808 527.392 46.64 527.136 46.488C526.248 45.928 525.804 45.224 525.804 44.376C525.804 43.696 526.048 43.128 526.536 42.672C527.024 42.208 527.672 41.976 528.48 41.976C529.584 41.976 530.452 42.412 531.084 43.284L530.28 44.052C529.8 43.42 529.204 43.104 528.492 43.104C528.084 43.104 527.748 43.216 527.484 43.44C527.22 43.656 527.088 43.944 527.088 44.304C527.088 44.768 527.34 45.148 527.844 45.444C528.052 45.572 528.396 45.748 528.876 45.972C529.38 46.212 529.752 46.4 529.992 46.536C530.848 47.056 531.276 47.744 531.276 48.6C531.276 49.36 530.996 49.972 530.436 50.436C529.876 50.908 529.18 51.144 528.348 51.144ZM535.337 51.156C534.497 51.156 533.825 50.908 533.321 50.412C532.825 49.916 532.577 49.248 532.577 48.408V44.568H533.729V48.372C533.729 48.9 533.869 49.32 534.149 49.632C534.437 49.936 534.833 50.088 535.337 50.088C535.841 50.088 536.237 49.936 536.525 49.632C536.813 49.32 536.957 48.9 536.957 48.372V44.568H538.097V48.408C538.097 49.264 537.849 49.936 537.353 50.424C536.865 50.912 536.193 51.156 535.337 51.156ZM542.798 51.144C541.798 51.144 540.982 50.828 540.35 50.196C539.718 49.564 539.402 48.76 539.402 47.784C539.402 46.808 539.722 46 540.362 45.36C541.002 44.728 541.834 44.412 542.858 44.412C543.49 44.412 544.07 44.564 544.598 44.868C545.134 45.172 545.526 45.58 545.774 46.092L544.826 46.644C544.61 46.276 544.326 45.988 543.974 45.78C543.63 45.572 543.258 45.468 542.858 45.468C542.202 45.468 541.654 45.688 541.214 46.128C540.782 46.576 540.566 47.128 540.566 47.784C540.566 48.432 540.778 48.98 541.202 49.428C541.618 49.868 542.15 50.088 542.798 50.088C543.198 50.088 543.582 49.98 543.95 49.764C544.326 49.548 544.606 49.272 544.79 48.936L545.75 49.488C545.478 49.992 545.078 50.392 544.55 50.688C544.006 50.992 543.422 51.144 542.798 51.144ZM549.982 51.144C548.982 51.144 548.166 50.828 547.534 50.196C546.902 49.564 546.586 48.76 546.586 47.784C546.586 46.808 546.906 46 547.546 45.36C548.186 44.728 549.018 44.412 550.042 44.412C550.674 44.412 551.254 44.564 551.782 44.868C552.318 45.172 552.71 45.58 552.958 46.092L552.01 46.644C551.794 46.276 551.51 45.988 551.158 45.78C550.814 45.572 550.442 45.468 550.042 45.468C549.386 45.468 548.838 45.688 548.398 46.128C547.966 46.576 547.75 47.128 547.75 47.784C547.75 48.432 547.962 48.98 548.386 49.428C548.802 49.868 549.334 50.088 549.982 50.088C550.382 50.088 550.766 49.98 551.134 49.764C551.51 49.548 551.79 49.272 551.974 48.936L552.934 49.488C552.662 49.992 552.262 50.392 551.734 50.688C551.19 50.992 550.606 51.144 549.982 51.144ZM560.141 47.664C560.141 47.744 560.129 47.94 560.105 48.252H554.981C555.085 48.82 555.325 49.268 555.701 49.596C556.077 49.924 556.589 50.088 557.237 50.088C557.621 50.088 558.017 50.024 558.425 49.896C558.833 49.76 559.185 49.584 559.481 49.368L559.973 50.244C559.637 50.5 559.221 50.716 558.725 50.892C558.229 51.06 557.725 51.144 557.213 51.144C556.629 51.144 556.109 51.048 555.653 50.856C555.205 50.664 554.849 50.404 554.585 50.076C554.321 49.748 554.121 49.388 553.985 48.996C553.849 48.604 553.781 48.192 553.781 47.76C553.781 46.8 554.081 46 554.681 45.36C555.289 44.728 556.073 44.412 557.033 44.412C557.945 44.412 558.689 44.704 559.265 45.288C559.849 45.872 560.141 46.664 560.141 47.664ZM554.981 47.256H558.953C558.921 46.704 558.725 46.264 558.365 45.936C558.013 45.6 557.569 45.432 557.033 45.432C556.513 45.432 556.065 45.604 555.689 45.948C555.313 46.284 555.077 46.72 554.981 47.256ZM563.301 51.144C562.805 51.144 562.341 51.024 561.909 50.784C561.485 50.544 561.153 50.2 560.913 49.752L561.741 49.116C561.917 49.444 562.149 49.696 562.437 49.872C562.733 50.048 563.033 50.136 563.337 50.136C563.673 50.136 563.945 50.052 564.153 49.884C564.369 49.708 564.477 49.496 564.477 49.248C564.477 48.904 564.281 48.632 563.889 48.432C563.785 48.376 563.517 48.256 563.085 48.072C562.685 47.904 562.421 47.784 562.293 47.712C561.637 47.352 561.309 46.832 561.309 46.152C561.309 45.632 561.501 45.204 561.885 44.868C562.261 44.524 562.769 44.352 563.409 44.352C563.825 44.352 564.217 44.44 564.585 44.616C564.953 44.792 565.241 45.044 565.449 45.372L564.717 46.068C564.365 45.572 563.905 45.324 563.337 45.324C563.057 45.324 562.833 45.4 562.665 45.552C562.497 45.696 562.413 45.88 562.413 46.104C562.413 46.44 562.593 46.692 562.953 46.86L563.661 47.172C564.045 47.324 564.333 47.456 564.525 47.568C565.253 47.936 565.617 48.476 565.617 49.188C565.617 49.74 565.401 50.204 564.969 50.58C564.529 50.956 563.973 51.144 563.301 51.144ZM568.739 51.144C568.243 51.144 567.779 51.024 567.347 50.784C566.923 50.544 566.591 50.2 566.351 49.752L567.179 49.116C567.355 49.444 567.587 49.696 567.875 49.872C568.171 50.048 568.471 50.136 568.775 50.136C569.111 50.136 569.383 50.052 569.591 49.884C569.807 49.708 569.915 49.496 569.915 49.248C569.915 48.904 569.719 48.632 569.327 48.432C569.223 48.376 568.955 48.256 568.523 48.072C568.123 47.904 567.859 47.784 567.731 47.712C567.075 47.352 566.747 46.832 566.747 46.152C566.747 45.632 566.939 45.204 567.323 44.868C567.699 44.524 568.207 44.352 568.847 44.352C569.263 44.352 569.655 44.44 570.023 44.616C570.391 44.792 570.679 45.044 570.887 45.372L570.155 46.068C569.803 45.572 569.343 45.324 568.775 45.324C568.495 45.324 568.271 45.4 568.103 45.552C567.935 45.696 567.851 45.88 567.851 46.104C567.851 46.44 568.031 46.692 568.391 46.86L569.099 47.172C569.483 47.324 569.771 47.456 569.963 47.568C570.691 47.936 571.055 48.476 571.055 49.188C571.055 49.74 570.839 50.204 570.407 50.58C569.967 50.956 569.411 51.144 568.739 51.144Z" fill="#222222"/>
<path d="M531.636 73H526.116V64.132H531.636V65.272H527.316V67.924H531.312V69.064H527.316V71.86H531.636V73ZM534.353 73H533.201V66.568H534.293V67.516C534.669 66.772 535.285 66.4 536.141 66.4C536.373 66.4 536.625 66.432 536.897 66.496L536.789 67.612C536.557 67.54 536.333 67.504 536.117 67.504C535.589 67.504 535.161 67.684 534.833 68.044C534.513 68.404 534.353 68.92 534.353 69.592V73ZM539.017 73H537.865V66.568H538.957V67.516C539.333 66.772 539.949 66.4 540.805 66.4C541.037 66.4 541.289 66.432 541.561 66.496L541.453 67.612C541.221 67.54 540.997 67.504 540.781 67.504C540.253 67.504 539.825 67.684 539.497 68.044C539.177 68.404 539.017 68.92 539.017 69.592V73ZM545.212 73.156C544.228 73.156 543.416 72.832 542.776 72.184C542.144 71.528 541.828 70.724 541.828 69.772C541.828 68.82 542.144 68.024 542.776 67.384C543.408 66.728 544.22 66.4 545.212 66.4C546.188 66.4 546.992 66.728 547.624 67.384C548.264 68.048 548.584 68.844 548.584 69.772C548.584 70.716 548.264 71.52 547.624 72.184C546.984 72.832 546.18 73.156 545.212 73.156ZM547.432 69.772C547.432 69.14 547.216 68.6 546.784 68.152C546.352 67.696 545.828 67.468 545.212 67.468C544.596 67.468 544.072 67.696 543.64 68.152C543.208 68.6 542.992 69.14 542.992 69.772C542.992 70.412 543.208 70.96 543.64 71.416C544.072 71.872 544.596 72.1 545.212 72.1C545.828 72.1 546.352 71.872 546.784 71.416C547.216 70.96 547.432 70.412 547.432 69.772ZM551.11 73H549.958V66.568H551.05V67.516C551.426 66.772 552.042 66.4 552.898 66.4C553.13 66.4 553.382 66.432 553.654 66.496L553.546 67.612C553.314 67.54 553.09 67.504 552.874 67.504C552.346 67.504 551.918 67.684 551.59 68.044C551.27 68.404 551.11 68.92 551.11 69.592V73ZM556.329 73.144C555.833 73.144 555.369 73.024 554.937 72.784C554.513 72.544 554.181 72.2 553.941 71.752L554.769 71.116C554.945 71.444 555.177 71.696 555.465 71.872C555.761 72.048 556.061 72.136 556.365 72.136C556.701 72.136 556.973 72.052 557.181 71.884C557.397 71.708 557.505 71.496 557.505 71.248C557.505 70.904 557.309 70.632 556.917 70.432C556.813 70.376 556.545 70.256 556.113 70.072C555.713 69.904 555.449 69.784 555.321 69.712C554.665 69.352 554.337 68.832 554.337 68.152C554.337 67.632 554.529 67.204 554.913 66.868C555.289 66.524 555.797 66.352 556.437 66.352C556.853 66.352 557.245 66.44 557.613 66.616C557.981 66.792 558.269 67.044 558.477 67.372L557.745 68.068C557.393 67.572 556.933 67.324 556.365 67.324C556.085 67.324 555.861 67.4 555.693 67.552C555.525 67.696 555.441 67.88 555.441 68.104C555.441 68.44 555.621 68.692 555.981 68.86L556.689 69.172C557.073 69.324 557.361 69.456 557.553 69.568C558.281 69.936 558.645 70.476 558.645 71.188C558.645 71.74 558.429 72.204 557.997 72.58C557.557 72.956 557.001 73.144 556.329 73.144ZM563.423 74.476H562.295L567.959 63.1H569.087L563.423 74.476ZM578.165 68.152C578.693 68.296 579.101 68.58 579.389 69.004C579.685 69.42 579.833 69.904 579.833 70.456C579.833 71.152 579.589 71.748 579.101 72.244C578.621 72.748 577.949 73 577.085 73H573.425V64.132H576.929C577.697 64.132 578.293 64.356 578.717 64.804C579.149 65.244 579.365 65.76 579.365 66.352C579.365 66.76 579.257 67.128 579.041 67.456C578.825 67.784 578.533 68.016 578.165 68.152ZM576.773 65.248H574.613V67.72H576.737C577.161 67.72 577.501 67.596 577.757 67.348C578.013 67.092 578.141 66.784 578.141 66.424C578.141 66.096 578.013 65.82 577.757 65.596C577.509 65.364 577.181 65.248 576.773 65.248ZM574.613 71.872H576.893C577.421 71.872 577.833 71.724 578.129 71.428C578.441 71.132 578.597 70.78 578.597 70.372C578.597 69.932 578.437 69.564 578.117 69.268C577.805 68.964 577.381 68.812 576.845 68.812H574.613V71.872ZM584.247 73.156C583.263 73.156 582.451 72.832 581.811 72.184C581.179 71.528 580.863 70.724 580.863 69.772C580.863 68.82 581.179 68.024 581.811 67.384C582.443 66.728 583.255 66.4 584.247 66.4C585.223 66.4 586.027 66.728 586.659 67.384C587.299 68.048 587.619 68.844 587.619 69.772C587.619 70.716 587.299 71.52 586.659 72.184C586.019 72.832 585.215 73.156 584.247 73.156ZM586.467 69.772C586.467 69.14 586.251 68.6 585.819 68.152C585.387 67.696 584.863 67.468 584.247 67.468C583.631 67.468 583.107 67.696 582.675 68.152C582.243 68.6 582.027 69.14 582.027 69.772C582.027 70.412 582.243 70.96 582.675 71.416C583.107 71.872 583.631 72.1 584.247 72.1C584.863 72.1 585.387 71.872 585.819 71.416C586.251 70.96 586.467 70.412 586.467 69.772ZM591.669 73.156C590.829 73.156 590.157 72.908 589.653 72.412C589.157 71.916 588.909 71.248 588.909 70.408V66.568H590.061V70.372C590.061 70.9 590.201 71.32 590.481 71.632C590.769 71.936 591.165 72.088 591.669 72.088C592.173 72.088 592.569 71.936 592.857 71.632C593.145 71.32 593.289 70.9 593.289 70.372V66.568H594.429V70.408C594.429 71.264 594.181 71.936 593.685 72.424C593.197 72.912 592.525 73.156 591.669 73.156ZM597.282 73H596.13V66.568H597.258V67.48C597.666 66.76 598.346 66.4 599.298 66.4C600.018 66.4 600.622 66.632 601.11 67.096C601.598 67.56 601.842 68.228 601.842 69.1V73H600.702V69.424C600.702 68.808 600.55 68.328 600.246 67.984C599.95 67.64 599.554 67.468 599.058 67.468C598.538 67.468 598.11 67.652 597.774 68.02C597.446 68.396 597.282 68.868 597.282 69.436V73ZM606.548 73.144C605.548 73.144 604.732 72.828 604.1 72.196C603.468 71.564 603.152 70.76 603.152 69.784C603.152 68.808 603.472 68 604.112 67.36C604.752 66.728 605.584 66.412 606.608 66.412C607.24 66.412 607.82 66.564 608.348 66.868C608.884 67.172 609.276 67.58 609.524 68.092L608.576 68.644C608.36 68.276 608.076 67.988 607.724 67.78C607.38 67.572 607.008 67.468 606.608 67.468C605.952 67.468 605.404 67.688 604.964 68.128C604.532 68.576 604.316 69.128 604.316 69.784C604.316 70.432 604.528 70.98 604.952 71.428C605.368 71.868 605.9 72.088 606.548 72.088C606.948 72.088 607.332 71.98 607.7 71.764C608.076 71.548 608.356 71.272 608.54 70.936L609.5 71.488C609.228 71.992 608.828 72.392 608.3 72.688C607.756 72.992 607.172 73.144 606.548 73.144ZM616.708 69.664C616.708 69.744 616.696 69.94 616.672 70.252H611.548C611.652 70.82 611.892 71.268 612.268 71.596C612.644 71.924 613.156 72.088 613.804 72.088C614.188 72.088 614.584 72.024 614.992 71.896C615.4 71.76 615.752 71.584 616.048 71.368L616.54 72.244C616.204 72.5 615.788 72.716 615.292 72.892C614.796 73.06 614.292 73.144 613.78 73.144C613.196 73.144 612.676 73.048 612.22 72.856C611.772 72.664 611.416 72.404 611.152 72.076C610.888 71.748 610.688 71.388 610.552 70.996C610.416 70.604 610.348 70.192 610.348 69.76C610.348 68.8 610.648 68 611.248 67.36C611.856 66.728 612.64 66.412 613.6 66.412C614.512 66.412 615.256 66.704 615.832 67.288C616.416 67.872 616.708 68.664 616.708 69.664ZM611.548 69.256H615.52C615.488 68.704 615.292 68.264 614.932 67.936C614.58 67.6 614.136 67.432 613.6 67.432C613.08 67.432 612.632 67.604 612.256 67.948C611.88 68.284 611.644 68.72 611.548 69.256Z" fill="#222222"/>
<path d="M532.056 90.456V84.132H533.244V93H532.62L527.304 86.712V93H526.116V84.132H526.656L532.056 90.456ZM541.169 89.664C541.169 89.744 541.157 89.94 541.133 90.252H536.009C536.113 90.82 536.353 91.268 536.729 91.596C537.105 91.924 537.617 92.088 538.265 92.088C538.649 92.088 539.045 92.024 539.453 91.896C539.861 91.76 540.213 91.584 540.509 91.368L541.001 92.244C540.665 92.5 540.249 92.716 539.753 92.892C539.257 93.06 538.753 93.144 538.241 93.144C537.657 93.144 537.137 93.048 536.681 92.856C536.233 92.664 535.877 92.404 535.613 92.076C535.349 91.748 535.149 91.388 535.013 90.996C534.877 90.604 534.809 90.192 534.809 89.76C534.809 88.8 535.109 88 535.709 87.36C536.317 86.728 537.101 86.412 538.061 86.412C538.973 86.412 539.717 86.704 540.293 87.288C540.877 87.872 541.169 88.664 541.169 89.664ZM536.009 89.256H539.981C539.949 88.704 539.753 88.264 539.393 87.936C539.041 87.6 538.597 87.432 538.061 87.432C537.541 87.432 537.093 87.604 536.717 87.948C536.341 88.284 536.105 88.72 536.009 89.256ZM544.765 92.988H543.817L541.609 86.568H542.821L544.345 91.392L546.097 86.568H546.901L548.725 91.392L550.189 86.568H551.389L549.241 92.988H548.281L546.505 88.176L544.765 92.988ZM563.028 93.48C563.372 93.48 563.724 93.416 564.084 93.288L564.228 94.296C563.852 94.448 563.428 94.524 562.956 94.524C561.852 94.524 560.868 94.06 560.004 93.132C559.948 93.14 559.828 93.144 559.644 93.144C558.372 93.144 557.288 92.696 556.392 91.8C555.496 90.904 555.048 89.824 555.048 88.56C555.048 87.304 555.496 86.228 556.392 85.332C557.296 84.428 558.38 83.976 559.644 83.976C560.908 83.976 561.988 84.424 562.884 85.32C563.78 86.216 564.228 87.296 564.228 88.56C564.228 89.52 563.96 90.388 563.424 91.164C562.888 91.932 562.188 92.488 561.324 92.832C561.844 93.264 562.412 93.48 563.028 93.48ZM556.296 88.584C556.296 89.552 556.62 90.36 557.268 91.008C557.916 91.656 558.708 91.98 559.644 91.98C560.588 91.98 561.38 91.656 562.02 91.008C562.668 90.36 562.992 89.552 562.992 88.584C562.992 87.608 562.668 86.792 562.02 86.136C561.388 85.48 560.596 85.152 559.644 85.152C558.708 85.152 557.916 85.48 557.268 86.136C556.62 86.792 556.296 87.608 556.296 88.584ZM568.337 93.156C567.497 93.156 566.825 92.908 566.321 92.412C565.825 91.916 565.577 91.248 565.577 90.408V86.568H566.729V90.372C566.729 90.9 566.869 91.32 567.149 91.632C567.437 91.936 567.833 92.088 568.337 92.088C568.841 92.088 569.237 91.936 569.525 91.632C569.813 91.32 569.957 90.9 569.957 90.372V86.568H571.097V90.408C571.097 91.264 570.849 91.936 570.353 92.424C569.865 92.912 569.193 93.156 568.337 93.156ZM577.886 87.504V86.568H578.99V93H577.886V92.088C577.31 92.8 576.554 93.156 575.618 93.156C574.69 93.156 573.922 92.828 573.314 92.172C572.706 91.516 572.402 90.704 572.402 89.736C572.402 88.768 572.706 87.976 573.314 87.36C573.922 86.728 574.69 86.412 575.618 86.412C576.53 86.412 577.286 86.776 577.886 87.504ZM577.958 89.772C577.958 89.124 577.754 88.58 577.346 88.14C576.938 87.692 576.406 87.468 575.75 87.468C575.094 87.468 574.566 87.692 574.166 88.14C573.766 88.588 573.566 89.136 573.566 89.784C573.566 90.432 573.766 90.98 574.166 91.428C574.566 91.876 575.094 92.1 575.75 92.1C576.406 92.1 576.938 91.876 577.346 91.428C577.754 90.988 577.958 90.436 577.958 89.772ZM581.931 93H580.779V86.568H581.871V87.516C582.247 86.772 582.863 86.4 583.719 86.4C583.951 86.4 584.203 86.432 584.475 86.496L584.367 87.612C584.135 87.54 583.911 87.504 583.695 87.504C583.167 87.504 582.739 87.684 582.411 88.044C582.091 88.404 581.931 88.92 581.931 89.592V93ZM590.226 87.504V86.568H591.33V93H590.226V92.088C589.65 92.8 588.894 93.156 587.958 93.156C587.03 93.156 586.262 92.828 585.654 92.172C585.046 91.516 584.742 90.704 584.742 89.736C584.742 88.768 585.046 87.976 585.654 87.36C586.262 86.728 587.03 86.412 587.958 86.412C588.87 86.412 589.626 86.776 590.226 87.504ZM590.298 89.772C590.298 89.124 590.094 88.58 589.686 88.14C589.278 87.692 588.746 87.468 588.09 87.468C587.434 87.468 586.906 87.692 586.506 88.14C586.106 88.588 585.906 89.136 585.906 89.784C585.906 90.432 586.106 90.98 586.506 91.428C586.906 91.876 587.434 92.1 588.09 92.1C588.746 92.1 589.278 91.876 589.686 91.428C590.094 90.988 590.298 90.436 590.298 89.772ZM594.27 93H593.118V86.568H594.246V87.48C594.654 86.76 595.334 86.4 596.286 86.4C597.006 86.4 597.61 86.632 598.098 87.096C598.586 87.56 598.83 88.228 598.83 89.1V93H597.69V89.424C597.69 88.808 597.538 88.328 597.234 87.984C596.938 87.64 596.542 87.468 596.046 87.468C595.526 87.468 595.098 87.652 594.762 88.02C594.434 88.396 594.27 88.868 594.27 89.436V93ZM604.234 91.728L604.666 92.616C604.202 92.976 603.63 93.156 602.95 93.156C602.278 93.156 601.766 92.948 601.414 92.532C601.07 92.116 600.898 91.52 600.898 90.744V87.552H599.758V86.568H600.91V84.288H602.038V86.568H604.318V87.552H602.038V90.828C602.038 91.676 602.386 92.1 603.082 92.1C603.458 92.1 603.842 91.976 604.234 91.728ZM606.187 85.656C605.947 85.656 605.747 85.58 605.587 85.428C605.427 85.268 605.347 85.068 605.347 84.828C605.347 84.596 605.427 84.404 605.587 84.252C605.747 84.1 605.947 84.024 606.187 84.024C606.411 84.024 606.603 84.104 606.763 84.264C606.923 84.416 607.003 84.604 607.003 84.828C607.003 85.068 606.923 85.268 606.763 85.428C606.603 85.58 606.411 85.656 606.187 85.656ZM606.739 86.568V93H605.587V86.568H606.739ZM609.681 93H608.529V86.568H609.657V87.48C610.065 86.76 610.745 86.4 611.697 86.4C612.417 86.4 613.021 86.632 613.509 87.096C613.997 87.56 614.241 88.228 614.241 89.1V93H613.101V89.424C613.101 88.808 612.949 88.328 612.645 87.984C612.349 87.64 611.953 87.468 611.457 87.468C610.937 87.468 610.509 87.652 610.173 88.02C609.845 88.396 609.681 88.868 609.681 89.436V93ZM621.923 89.664C621.923 89.744 621.911 89.94 621.887 90.252H616.763C616.867 90.82 617.107 91.268 617.483 91.596C617.859 91.924 618.371 92.088 619.019 92.088C619.403 92.088 619.799 92.024 620.207 91.896C620.615 91.76 620.967 91.584 621.263 91.368L621.755 92.244C621.419 92.5 621.003 92.716 620.507 92.892C620.011 93.06 619.507 93.144 618.995 93.144C618.411 93.144 617.891 93.048 617.435 92.856C616.987 92.664 616.631 92.404 616.367 92.076C616.103 91.748 615.903 91.388 615.767 90.996C615.631 90.604 615.563 90.192 615.563 89.76C615.563 88.8 615.863 88 616.463 87.36C617.071 86.728 617.855 86.412 618.815 86.412C619.727 86.412 620.471 86.704 621.047 87.288C621.631 87.872 621.923 88.664 621.923 89.664ZM616.763 89.256H620.735C620.703 88.704 620.507 88.264 620.147 87.936C619.795 87.6 619.351 87.432 618.815 87.432C618.295 87.432 617.847 87.604 617.471 87.948C617.095 88.284 616.859 88.72 616.763 89.256ZM625.083 93.144C624.587 93.144 624.123 93.024 623.691 92.784C623.267 92.544 622.935 92.2 622.695 91.752L623.523 91.116C623.699 91.444 623.931 91.696 624.219 91.872C624.515 92.048 624.815 92.136 625.119 92.136C625.455 92.136 625.727 92.052 625.935 91.884C626.151 91.708 626.259 91.496 626.259 91.248C626.259 90.904 626.063 90.632 625.671 90.432C625.567 90.376 625.299 90.256 624.867 90.072C624.467 89.904 624.203 89.784 624.075 89.712C623.419 89.352 623.091 88.832 623.091 88.152C623.091 87.632 623.283 87.204 623.667 86.868C624.043 86.524 624.551 86.352 625.191 86.352C625.607 86.352 625.999 86.44 626.367 86.616C626.735 86.792 627.023 87.044 627.231 87.372L626.499 88.068C626.147 87.572 625.687 87.324 625.119 87.324C624.839 87.324 624.615 87.4 624.447 87.552C624.279 87.696 624.195 87.88 624.195 88.104C624.195 88.44 624.375 88.692 624.735 88.86L625.443 89.172C625.827 89.324 626.115 89.456 626.307 89.568C627.035 89.936 627.399 90.476 627.399 91.188C627.399 91.74 627.183 92.204 626.751 92.58C626.311 92.956 625.755 93.144 625.083 93.144Z" fill="#222222"/>
<rect x="503" y="40" width="14" height="14" rx="1" fill="#49C47A"/>
<rect x="503" y="61" width="14" height="14" rx="1" fill="#4074FC"/>
<rect x="503" y="82" width="14" height="14" rx="1" fill="#FFCB47"/>
</svg>
